<?xml version="1.0" encoding="UTF-8" standalone="no"?>
<!-- Created with Inkscape (http://www.inkscape.org/) -->

<svg
   width="210mm"
   height="297mm"
   viewBox="0 0 210 297"
   version="1.1"
   id="svg5"
   inkscape:version="1.1.2 (0a00cf5339, 2022-02-04)"
   sodipodi:docname="background.svg"
   xmlns:inkscape="http://www.inkscape.org/namespaces/inkscape"
   xmlns:sodipodi="http://sodipodi.sourceforge.net/DTD/sodipodi-0.dtd"
   xmlns="http://www.w3.org/2000/svg"
   xmlns:svg="http://www.w3.org/2000/svg">
  <sodipodi:namedview
     id="namedview7"
     pagecolor="#ffffff"
     bordercolor="#666666"
     borderopacity="1.0"
     inkscape:pageshadow="2"
     inkscape:pageopacity="0.0"
     inkscape:pagecheckerboard="0"
     inkscape:document-units="mm"
     showgrid="false"
     inkscape:zoom="0.29497991"
     inkscape:cx="1589.9388"
     inkscape:cy="-657.67192"
     inkscape:window-width="1920"
     inkscape:window-height="1012"
     inkscape:window-x="1920"
     inkscape:window-y="0"
     inkscape:window-maximized="0"
     inkscape:current-layer="layer1" />
  <defs
     id="defs2" />
  <g
     inkscape:label="Layer 1"
     inkscape:groupmode="layer"
     id="layer1">
    <path
       style="fill:none;stroke:#000000;stroke-width:0.264583px;stroke-linecap:butt;stroke-linejoin:miter;stroke-opacity:1;opacity:0.23100559"
       d="m 33.744818,40.817194 c 27.306074,-8.155488 10.701644,-3.730919 46.454329,-11.243345 30.192623,-6.344136 14.161862,-1.521428 27.171603,-6.760888 1.03709,-0.417672 8.25437,-1.295827 8.27317,-1.245406 0.51644,1.385508 -0.4315,2.077792 -1.10777,3.128993 -10.0598,15.637088 -4.07867,8.684267 -19.19424,22.133849 -2.768277,2.463165 -5.658776,4.789242 -8.377637,7.306847 -2.1057,1.949831 -3.891764,4.240271 -6.087769,6.087804 -1.061183,0.892786 -12.824992,6.434211 -11.402097,7.156836 1.092962,0.555064 9.606415,-2.376551 11.825883,-2.596711 2.933057,-0.290941 5.8991,0.157266 8.842354,0 4.895045,-0.261551 16.740276,-3.181699 21.452986,1.167932 1.99081,1.837438 0.94502,5.43243 0.53254,8.11 -0.7642,4.960731 -1.71127,9.935858 -3.34735,14.68097 -2.92213,8.475014 -6.15954,16.890365 -10.282825,24.850475 -12.6727,24.46497 -10.828115,24.4478 -33.275812,33.13533 -2.90303,1.12351 -6.076929,1.35466 -9.127694,1.97328 -0.197212,0.04 -0.59345,0.20096 -0.603684,0 -0.200967,-3.94682 -1.588505,-8.23718 0,-11.8558 4.588338,-10.45224 9.963838,-21.02389 17.994667,-29.13609 17.784061,-17.964276 62.442288,-23.047634 80.587718,-25.200104 17.89199,-2.122405 36.05197,-3.193492 54.02019,-1.862764 14.99342,1.110408 29.85031,4.550126 44.16875,9.134625 4.14419,1.326894 9.30532,3.972666 10.11911,8.247327 2.2595,11.868716 -21.68125,34.951266 -24.99946,38.114476 -10.16364,9.68884 -21.32929,18.28077 -32.35255,26.9791 -8.98426,7.08937 -29.45236,26.1425 -44.98365,19.09662 -11.27801,-5.11634 -19.68239,-15.56252 -26.90147,-25.6251 -8.74971,-12.19611 -16.06154,-25.79275 -20.31396,-40.18787 -2.56377,-8.67875 0.75623,-40.281789 2.86308,-50.54551 1.10566,-5.386332 2.65101,-10.731074 4.88073,-15.757345 2.75702,-6.214936 7.95756,-7.029149 8.2807,-5.58646 1.65444,7.386431 3.61133,28.21088 0.27105,33.198336 -26.81375,40.036319 -45.430219,52.180489 -88.526565,65.172139 -5.936218,1.78951 -35.1534335,7.60191 -43.8830871,-1.554 C -10.280307,133.99675 -4.0046706,101.72877 -3.4758579,99.211586 6.0172755,54.023712 10.028829,54.200504 45.743838,13.357123 52.815513,5.2700142 61.766883,-0.96929489 69.427827,-8.5005549 c 1.865342,-1.8337661 5.555565,-3.6648901 4.83629,-6.1798131 -0.751642,-2.628084 -4.803997,-3.063426 -7.531492,-3.243874 -12.404592,-0.82067 -25.227311,-2.711755 -37.294089,0.278275 -38.9227088,9.6446681 -67.355846,27.6196343 -94.973215,55.866728 -15.118242,15.462966 -31.650369,30.785506 -40.980831,50.294658 -11.63131,24.320001 -17.34311,51.462181 -20.49042,78.236131 -2.77346,23.59368 9.95459,38.40012 33.415692,37.00359 19.557015,-1.16414 38.465719,-7.66945 57.323036,-12.983 20.789246,-5.85791 40.5370314,-15.17379 61.471248,-20.49042 20.505722,-5.2078 66.060034,-13.04852 90.976634,-9.31382 16.92003,2.53611 14.504,47.44139 -6.64552,39.01045 -15.622307,-6.22761 -16.932767,-19.3672 -17.015661,-34.73074 -0.100478,-18.62271 -0.06676,-37.51181 3.725532,-55.74457 6.200779,-29.81247 11.358249,-60.893994 26.078709,-87.549964 9.14896,-16.5670383 26.39195,-27.9004497 42.8436,-37.255311 27.215,-15.475199 66.9796,-25.404487 96.70149,-7.510076 26.78539,16.1264498 27.49273,88.402336 27.76678,101.298135 2.35398,110.764776 -11.43269,134.623046 -52.15742,249.610546 -3.98736,11.25842 -10.87651,21.27576 -16.76489,31.667 -9.36468,16.52593 -21.6946,39.0969 -40.86746,46.73725 -10.14717,4.04362 -22.06062,3.09051 -32.75776,0.87976 -8.01362,-1.65616 -60.108104,-32.6871 -61.471245,-33.52977 -3.381799,-2.09058 -91.5332186,-56.90161 -105.782021,-70.48839 -7.888349,-7.52184 -13.043596,-17.52417 -18.526626,-26.9444 -1.429504,-2.45599 -1.306605,-5.53127 -1.982372,-8.29145 -0.187245,-0.76481 -1.274101,-3.04438 -0.06165,-3.91599 14.013974,-10.07441 43.6162277,-19.86117 59.184891,-23.33511 51.605931,-11.51516 60.689003,-10.86038 112.889663,-11.79901 15.90133,-0.28593 31.81134,-0.33491 47.71172,0 3.75896,0.0792 7.55415,0.36683 11.21089,1.24108 0.46658,0.11155 0.30603,1.06976 0,1.43921 -2.08826,2.52105 -3.96626,5.5852 -6.94438,6.94437 -13.42408,6.12659 -27.4832,10.82834 -41.57678,15.2001 -50.036058,15.52093 -101.705367,25.98499 -152.746736,37.25531 -7.621629,1.68291 -15.266062,3.26718 -22.933411,4.72771 -0.617442,0.11763 -1.626557,0.57266 -1.885635,0 -0.743024,-1.64237 -0.95318,-3.62347 -0.54833,-5.38006 5.12776,-22.24884 10.510675,-32.93564 31.3102669,-48.38421 C 33.985083,213.11692 88.30248,180.74922 136.50647,165.7464 c 14.80506,-4.60787 30.45989,-6.33811 45.93244,-7.34919 3.38698,-0.22133 9.78724,0.34859 9.47547,3.72845 -4.82896,52.35011 -14.31306,104.21493 -24.19555,155.85008 -6.38327,33.35205 -35.22326,105.81378 -57.74572,122.94248 -48.435679,36.83617 -74.131491,9.0832 -96.394649,-24.42556 C 10.12276,411.29143 9.2567296,404.63398 8.649332,398.419 -0.20264815,307.84432 6.5095439,319.12726 23.58842,210.96104 25.215753,200.6546 39.551617,107.37224 42.216072,95.469587 47.304899,72.736762 53.062642,50.093019 60.510631,28.020298 63.027609,20.561027 67.91222,14.116374 71.947872,7.3569787 73.49051,4.7731896 75.428765,2.4465959 77.222047,0.03002338 c 0.177549,-0.23925713 0.468853,-0.88132551 0.632011,-0.63203396 0.291645,0.44560726 0.375173,1.21970852 0,1.59768718 -7.518974,7.5752009 -14.26065,16.3105184 -23.341801,21.9186664 -7.185652,4.437567 -15.803184,6.708759 -24.215947,7.45106 -34.0410095,3.003619 -68.278816,3.725532 -102.452081,3.725532 -25.488061,0 -50.978429,-1.548821 -76.373369,-3.725532 -18.1108,-1.552355 -36.09863,-4.413169 -54.02019,-7.45106 -5.10056,-0.864599 -10.84651,-1.06119 -14.93048,-4.236796 -1.5341,-1.192884 1.98166,-3.810762 3.83682,-4.389391 11.40433,-3.557032 23.12943,-6.3507643 34.99656,-7.7228136 42.06244,-4.863161 57.09371,-2.2141955 98.853011,9.3775186 27.551605,7.647885 54.840258,16.319721 81.7430465,26.00585 39.9871025,14.397032 59.3020035,25.40264 95.4754815,42.135316 55.758521,25.792073 12.865331,3.940021 42.643951,20.872043 1.74083,0.98982 3.6584,1.65283 5.37345,2.68669 0.15772,0.0951 0.15811,0.64693 0,0.5525 C 129.34043,98.579037 90.875807,78.523189 81.619674,58.655743 78.752485,52.501588 83.61483,44.935221 86.866562,38.975299 104.60134,6.470179 122.62472,-4.8280891 155.60495,-25.123616 c 16.08322,-9.897369 32.56914,-19.564561 50.29465,-26.078711 15.95174,-5.862286 32.95107,-8.866339 49.84424,-10.722465 4.01303,-0.440928 14.37992,1.227064 11.43569,3.989374 -11.0337,10.351929 -26.33764,14.897942 -39.50646,22.346912 -15.2364,13.44018 -31.75746,25.551132 -45.70921,40.3205381 -2.97869,3.1532684 -3.41821,8.0738529 -4.05862,12.3640289 -0.1089,0.729586 1.5541,-0.331647 2.21301,0 10.52318,5.29657 20.8035,11.064858 31.10971,16.772129 1.48393,0.821756 5.87483,2.335906 4.24508,2.806298 -53.71704,15.504316 -12.72341,-10.946445 -84.91843,16.821814 -9.96875,3.834265 -19.96545,9.9579 -25.93812,18.812549 -2.17646,3.226663 7.44723,2.48257 11.32121,2.857445 18.07998,1.749549 36.32372,1.528077 54.38076,3.50035 26.5332,2.898079 52.94505,6.877497 79.2998,11.100855 6.51335,1.043766 25.76835,5.531679 19.22608,4.687951 C 203.86671,86.075585 199.83562,78.798906 134.22297,79.808331 81.811724,80.614657 93.469321,78.224469 64.689963,94.212504 c -0.62379,0.346538 1.187492,-0.791631 1.78123,-1.187455 3.254018,-2.169343 6.497786,-4.354142 9.76204,-6.508049 C 99.329239,71.277188 174.49862,18.416808 208.05291,6.6728077 c 17.82438,-6.23853446 37.18696,-6.65149938 55.88295,-9.3138256 3.14254,-0.4474993 11.7352,-2.2760844 9.52271,0 -4.66958,4.80376 -12.03868,5.8818568 -18.07167,8.7946086 -15.20626,7.3416473 -31.0603,13.4604113 -45.64599,21.9685293 -19.3381,11.280291 -38.97538,22.580806 -55.88295,37.255304 -16.27808,14.128142 -34.38822,28.605477 -42.8436,48.431896 -22.295138,52.27824 -18.848993,85.79959 16.76488,124.80526 28.80589,31.54932 73.84162,51.28601 108.94435,73.25397 0.93147,0.58293 -2.15452,0.51909 -3.25328,0.53221 -13.76342,0.16444 -27.64028,-1.74829 -41.2932,0 -3.81165,0.48808 -7.9254,3.00858 -9.51679,6.50637 -0.91803,2.01776 2.20176,4.21862 4.21682,5.14263 6.02125,2.76108 13.13483,2.62876 19.08392,5.54204 1.09282,0.53514 -1.45299,2.66557 -2.65868,2.50145 -18.28234,-2.48886 -36.43124,-6.04401 -54.3922,-10.268 -5.65044,-1.32885 -18.50212,-1.00124 -16.21935,-6.33812 2.81362,-6.57794 13.80297,-4.23045 20.94181,-4.70252 33.04689,-2.18522 66.19114,-2.61115 99.30406,-3.24872 2.2872,-0.044 9.03078,0.96483 6.75596,1.20661 -18.76624,1.99456 -37.68687,5.91778 -56.46883,4.07707 -50.08536,-4.90858 -99.2092,-17.04655 -149.021212,-24.21594 -15.824907,-2.27766 -31.813028,-3.45284 -47.7874737,-4.11054 -0.9555247,-0.0393 0.8850569,2.01602 1.8198211,2.21798 9.4647596,2.04499 19.1536476,2.86393 28.7173906,4.37999 23.2381,3.68377 46.305499,8.59944 69.687444,11.21942 2.07282,0.23225 -3.21195,-2.66253 -4.84961,-3.95425 C 88.341543,287.74834 70.012609,281.40739 61.381594,266.61215 45.461838,239.32261 38.351174,207.56745 30.914482,176.86153 28.182797,165.58247 29.177929,73.455275 29.095829,71.833789 27.646032,43.200288 24.202015,14.702501 21.644769,-13.853406 17.729932,-57.569083 19.857098,-88.812872 -25.353798,-122.41028 c -8.186722,-6.08377 -10.894052,17.79625 -12.71588,27.831966 -1.328431,7.317798 2.262272,14.70529 3.668098,22.008615 6.032611,31.339655 12.744033,55.319347 24.215948,87.54996 5.8780259,16.514455 7.9925277,36.140384 20.490416,48.431894 23.013094,22.633074 51.091026,41.684385 81.664045,52.035675 18.795121,6.36357 39.540981,-3.68872 59.375251,-4.28319 2.88657,-0.0865 8.97293,-0.5704 8.36555,2.25287 -2.05343,9.54499 -8.53734,17.68849 -14.34411,25.53737 -1.50929,2.04007 -9.2287,4.22676 -6.91117,3.19287 57.93107,-25.84429 88.2069,-37.15058 145.46354,-85.122057 6.53193,-5.472645 13.90817,-20.266057 6.62559,-24.690943 -12.56501,-7.634477 -30.03622,-2.457469 -44.06481,1.942936 -47.71808,14.967929 -99.37914,25.53775 -139.35278,55.590418 -11.549835,8.683302 23.9332,18.346126 38.23144,20.433826 50.44128,7.36498 101.7888,8.81216 152.74675,7.45106 29.19817,-0.77989 57.73743,-8.90392 86.52555,-13.84208 0.51398,-0.0882 -0.84259,-0.76336 -1.36409,-0.76607 -48.06137,-0.25013 -96.17278,2.17247 -144.18608,0.009 -6.58473,-0.29676 -256.721771,14.00214 -267.994809,-79.368787 -3.902437,-32.3226363 37.4345576,-55.685133 65.149224,-72.769605 15.007743,-9.251399 93.624105,-38.46151 129.920005,-24.290416 2.85292,1.113872 1.32765,6.123376 0.85004,9.148561 -2.86327,18.13614 -3.64618,37.108103 -10.82115,54.008926 -14.65926,34.530288 -36.56613,65.521277 -54.02019,98.726559 -8.011483,15.241372 -15.711604,30.682892 -22.353178,46.569132 -2.274109,5.43953 -2.91267,11.42652 -4.289779,17.1592 -0.05438,0.22639 -0.205251,0.80838 0,0.69848 2.037136,-1.0908 3.672517,-2.8923 5.796584,-3.80229 5.146625,-2.20493 21.870623,-6.00017 25.908433,-5.84255 5.91308,0.23082 14.63362,5.92652 11.15073,9.7685 -13.04859,14.39394 -27.592792,27.50027 -42.950923,39.39896 -31.325796,24.26962 -67.1118415,42.7471 -96.863787,68.92231 -7.709215,6.78242 -13.316419,17.59303 -13.143045,27.85966 0.07725,4.57419 9.008585,-1.80856 13.579955,-1.9871 24.3278162,-0.95012 48.691901,-2.17554 73.025759,-1.39531 19.328564,0.61973 38.592427,2.9183 57.745721,5.58829 3.16841,0.4417 7.19829,0.96068 8.85684,3.69621 1.09065,1.79884 -2.09145,3.66778 -3.38737,5.32487 -4.04868,5.17705 -8.2009,10.28403 -12.62226,15.14668 -5.032454,5.53468 -12.813183,9.12542 -15.715979,16.01978 -2.302611,5.46888 8.17495,-9.25571 13.737699,-11.32123 31.49408,-11.69421 63.2526,-23.81766 96.35378,-29.55729 38.52994,-6.681 78.05523,-4.91477 117.07778,-7.45107 0.81135,-0.0528 -1.6283,-0.059 -2.43925,0 -4.40758,0.32052 -8.79176,1.27781 -13.20879,1.13792 -23.4936,-0.74416 -47.39659,0.976 -70.41442,-3.78663 -36.6315,-7.57947 -80.10801,-7.25456 -107.26745,-32.97769 -12.55809,-11.89395 30.64062,-16.24971 44.79471,-26.1912 25.44607,-17.87269 51.81874,-35.07337 73.77712,-57.09074 4.48878,-4.50084 8.11491,-20.9155 2.06735,-18.9575 -24.37425,7.89157 -41.32308,32.26033 -65.86524,39.61313 -41.47003,12.42436 -85.764571,11.90613 -128.530791,18.62765 -6.596983,1.03684 -26.13768,4.00161 -19.489973,4.63661 11.912875,1.13794 109.813624,-8.23688 122.233304,18.37262 12.12241,25.97256 -70.330127,76.13711 -74.871435,79.54973 -0.28497,0.21413 0.706215,0.20542 1.05859,0.15161 2.460897,-0.37592 4.848757,-1.22587 7.329572,-1.43291 8.597939,-0.7176 17.224153,-1.56363 25.848983,-1.3362 18.969,0.50017 38.04576,0.74616 56.8181,3.51603 6.00016,0.88534 19.79308,2.13447 16.65574,7.32512 -4.2232,6.98719 -15.89932,3.90445 -24.00967,4.84182 -28.54428,3.29904 -57.2589,4.93313 -85.844287,7.85466 -2.239679,0.22892 -5.366001,3.49586 -6.564246,1.58988 C 53.443761,308.64071 45.635529,285.6793 33.610203,265.0613 13.647896,230.83499 -9.0165445,198.2528 -29.723813,164.47199 c -7.582204,-12.36924 -14.185923,-25.31427 -21.517691,-37.83357 -3.141795,-5.36475 -15.580839,-13.28929 -9.897108,-15.80854 6.554447,-2.90518 11.442023,8.68392 17.568088,12.40847 15.694657,9.54208 31.171307,19.62608 47.83386,27.3548 3.9275815,1.82175 41.412571,9.07834 47.35875,15.516 2.146951,2.3244 2.848668,5.68779 4.740138,8.22444 20.862633,27.9789 42.357465,57.37615 85.059276,57.33265 24.8098,-0.0253 47.79694,-15.9948 67.8417,-30.61446 22.44084,-16.36725 36.45026,-42.12927 57.20465,-60.58823 27.11953,-24.12011 45.10492,-40.07884 79.06038,-40.07884"
       id="path857" />
  </g>
</svg>
