<?xml version="1.0" encoding="UTF-8" standalone="no"?>
<!-- Created with Inkscape (http://www.inkscape.org/) -->

<svg
   width="200.70081"
   height="50.51965"
   viewBox="0 0 53.102086 13.366658"
   version="1.1"
   id="svg5"
   sodipodi:docname="logo.svg"
   inkscape:version="1.1.2 (0a00cf5339, 2022-02-04)"
   xmlns:inkscape="http://www.inkscape.org/namespaces/inkscape"
   xmlns:sodipodi="http://sodipodi.sourceforge.net/DTD/sodipodi-0.dtd"
   xmlns="http://www.w3.org/2000/svg"
   xmlns:svg="http://www.w3.org/2000/svg">
  <sodipodi:namedview
     id="namedview7"
     pagecolor="#ffffff"
     bordercolor="#666666"
     borderopacity="1.0"
     inkscape:pageshadow="2"
     inkscape:pageopacity="0.0"
     inkscape:pagecheckerboard="0"
     inkscape:document-units="mm"
     showgrid="false"
     inkscape:zoom="1.5836649"
     inkscape:cx="53.988694"
     inkscape:cy="56.830204"
     inkscape:window-width="1553"
     inkscape:window-height="752"
     inkscape:window-x="470"
     inkscape:window-y="149"
     inkscape:window-maximized="0"
     inkscape:current-layer="layer1"
     units="px"
     height="100.51965px"
     width="690.70081px" />
  <defs
     id="defs2" />
  <g
     inkscape:label="Layer 1"
     inkscape:groupmode="layer"
     id="layer1">
    <path
       style="fill:#808000;stroke-width:0.0552306"
       id="path857"
       d="M 3.1941392,6.9360273 C 3.2844146,6.8907219 3.3712688,6.8434646 3.4649658,6.8001111 4.2325065,6.4449676 3.6331337,6.74638 4.4870129,6.3530166 5.0925793,6.0740451 5.6323555,5.7719674 6.1591644,5.4530191 6.8749485,5.0124371 7.3988896,4.5041412 7.8069213,3.9693375 8.0528502,3.6560976 8.1068445,3.3235144 8.0930474,2.9890168 8.0552848,2.8236188 7.9466667,2.6277348 7.5788652,2.6254872 7.2169369,2.7432887 6.8340933,2.8450301 6.4930806,2.9788918 6.4544226,2.9940668 6.2948437,3.216394 6.2864307,3.2279703 6.1595847,3.4025093 6.04928,3.5780449 5.9477358,3.7570427 5.7549868,4.1866979 5.5540513,4.615312 5.3659441,5.0454901 5.1592724,5.5436552 5.0934067,6.0096624 5.2485958,6.5129014 5.4620047,7.0382191 5.912175,7.5257271 6.3135671,8.0166135 c 0,0 0.9393984,-0.2767749 0.9393984,-0.2767749 v 0 C 6.8501883,7.2532193 6.4258039,6.7648001 6.2250827,6.2418164 6.0813029,5.7559521 6.1460803,5.2738462 6.3607024,4.7946034 6.5543712,4.3653661 6.7487326,3.9362333 6.9517413,3.5081811 7.0580772,3.3301274 7.169984,3.1540152 7.3067806,2.9815981 7.3414051,2.9379578 7.3743684,2.8937632 7.4168875,2.8520854 7.4532083,2.8164836 7.6152625,2.7371099 7.5425878,2.7504598 7.2339157,2.8071612 6.9628454,2.9093123 6.6729746,2.9887386 6.9732364,2.8876816 7.0642664,3.1537387 7.0884931,3.2589302 7.1040578,3.5853455 7.04843,3.9073653 6.8038913,4.2123697 6.3965218,4.7372739 5.8818701,5.2374684 5.1764163,5.6705884 4.2559943,6.2204067 3.2208862,6.6982315 2.1414807,7.160234 c 0,0 1.0526585,-0.2242067 1.0526585,-0.2242067 z" />
    <path
       style="fill:#808000;stroke-width:0.0552306"
       id="path892"
       d="M 11.763899,4.7259686 C 11.252769,5.206754 10.71161,5.6748433 10.287411,6.1792736 10.060437,6.5198429 9.8313319,6.8719157 9.7747199,7.234596 c -0.022856,0.1464528 0.0086,0.250636 0.036097,0.3938808 0.083723,0.148955 0.094431,0.2178779 0.2874151,0.3456035 0.531097,0.3515063 1.509343,0.5365891 2.267106,0.7084511 1.007282,0.2087053 1.947628,0.4022431 3.032043,0.4530652 0.850228,0.03092 1.375677,-0.1226667 2.091202,-0.4180304 0.07131,-0.029435 0.0557,-0.090587 0.08354,-0.1358797 0.09176,-0.6065527 0.01921,-1.2199162 -0.09679,-1.8245129 C 17.362195,6.3685565 17.34424,5.9724654 17.236213,5.5837065 17.210575,5.4914504 17.107104,5.2539409 17.067879,5.1610099 16.918121,4.9391841 16.834683,4.6357448 16.458425,4.4780796 c -0.0615,-0.02577 -0.134926,-0.042557 -0.202389,-0.063835 -1.303743,-0.2094377 -1.429601,-0.064333 -2.687673,0.3171152 -0.274426,0.094645 -0.497966,0.2180618 -0.71652,0.344679 0,0 1.033576,-0.2268239 1.033576,-0.2268239 v 0 c 0.22241,-0.1223392 0.450219,-0.2408934 0.727203,-0.3301924 -0.236146,0.067465 -0.480341,0.1277048 -0.708439,0.2023939 -0.0753,0.024656 0.16042,-0.042603 0.247565,-0.051484 0.375873,-0.038309 0.794255,0.029041 1.158231,0.06731 0.06155,0.016671 0.128305,0.028888 0.184676,0.050012 0.371948,0.1393726 0.450153,0.4427941 0.596013,0.6490951 0.221837,0.521048 0.314009,1.0519106 0.430551,1.5818723 0.107848,0.5988689 0.195288,1.2129696 0.02894,1.8103802 -0.258029,0.2552321 -0.197908,0.1456965 0.724417,-0.1247414 0.05381,-0.015779 -0.110998,0.028305 -0.168226,0.04035 -0.260696,0.054858 -0.525217,0.063604 -0.805071,0.052547 -0.308447,-0.010215 -0.504867,-0.01166 -0.813698,-0.044079 C 14.71884,8.6719872 13.994613,8.5022305 13.255493,8.3715983 12.503901,8.2030152 11.58611,8.0345887 11.06247,7.6825038 10.884999,7.5631759 10.875181,7.496662 10.799669,7.3576381 c -0.02823,-0.1433533 -0.05732,-0.230598 -0.03377,-0.3777865 0.05711,-0.3568841 0.279733,-0.7038344 0.509935,-1.0379087 0.430719,-0.5049695 0.9615,-0.983157 1.539389,-1.4457661 0,0 -1.05132,0.2297915 -1.05132,0.2297915 z" />
    <path
       style="fill:#808000;stroke-width:0.0552306"
       id="path894"
       d="M 24.918371,4.4224139 C 24.655918,4.2392105 24.199247,3.9422597 23.699956,3.957244 23.087374,3.975628 21.914729,4.4736259 21.75452,4.5281941 c -1.007798,0.5267168 -1.512081,1.2037782 -1.802266,1.9200783 -0.122999,0.4177421 0.07703,0.8552465 0.802784,1.0913884 0.128722,0.041885 0.27479,0.066927 0.412185,0.1003909 0.896339,0.1410538 1.79816,0.1018072 2.615575,-0.1472965 1.604736,-0.4890374 1.241772,-0.3375067 2.137992,-0.8486232 0.43583,-0.2821744 0.790259,-0.5940824 1.090574,-0.9204424 0.06868,-0.074642 0.129579,-0.1511977 0.191604,-0.2274254 0.03734,-0.045903 0.195498,-0.1565872 0.106482,-0.138917 -0.376654,0.074767 -0.692246,0.2159316 -1.038365,0.3238979 -0.278822,0.7783889 -0.697856,1.5397507 -1.018338,2.313565 -0.330087,0.7245185 -0.473099,1.4698792 -0.86348,2.1864059 -0.159715,0.298203 -0.359537,0.5982 -0.82039,0.802753 -0.05468,0.01796 -0.21807,0.07241 -0.164063,0.05389 0.281752,-0.09663 0.60681,-0.164696 0.847326,-0.288217 0.05041,-0.02589 -0.07784,-0.06386 -0.09102,-0.100204 -0.108714,-0.299523 -0.01621,-0.639363 0.0103,-0.9397727 0.08035,-0.3812743 0.09096,-0.7795382 0.423761,-1.1304521 0.127367,-0.1343089 0.314634,-0.2630763 0.478302,-0.3847001 0.256861,-0.174577 0.512797,-0.349261 0.838522,-0.490668 0.08909,-0.038678 0.378312,-0.1393649 0.279854,-0.1075452 -0.848597,0.274255 -0.647884,0.2073468 0.09077,0.1123322 1.071364,-0.1013512 0.538887,-0.051015 1.597432,-0.1510108 0,0 0.850818,-0.3364765 0.850818,-0.3364765 v 0 c -1.054655,0.1006265 -0.525658,0.052568 -1.587014,0.144126 -0.211756,0.021941 -0.436928,0.021166 -0.635272,0.065818 -1.139468,0.2565108 -1.764888,0.4933814 -2.446894,0.994321 -0.182144,0.1395802 -0.335036,0.2431163 -0.468459,0.3975292 -0.308847,0.3574358 -0.304503,0.7576323 -0.382333,1.1401439 -0.02882,0.2775161 -0.14068,0.7042261 -0.02722,0.9769331 0.02342,0.05631 0.03414,0.166093 0.142358,0.155975 0.597211,-0.05583 0.892424,-0.180796 1.28842,-0.336527 0.426886,-0.224544 0.61526,-0.523591 0.765665,-0.8255425 0.365371,-0.7165945 0.481934,-1.460092 0.825184,-2.1801124 0.332881,-0.7827001 0.732601,-1.5562534 1.0876,-2.3362096 -0.333987,0.062609 -0.692277,0.097162 -1.001961,0.1878256 -0.0777,0.022752 -0.05661,0.088544 -0.08989,0.131824 -0.05718,0.074348 -0.115409,0.1485699 -0.181362,0.2208938 -0.292727,0.3210573 -0.645184,0.6261874 -1.07909,0.9006816 -0.192178,0.1045414 -0.435999,0.1885147 -0.57653,0.3136252 -0.04465,0.039752 0.331143,-0.055297 0.257765,-0.029835 -0.768977,0.2668017 -1.664979,0.3065798 -2.534067,0.1769672 -0.131239,-0.029749 -0.270237,-0.051453 -0.393717,-0.089248 -0.709938,-0.2172982 -0.880503,-0.6321043 -0.761704,-1.0305688 0.283844,-0.7093966 0.804198,-1.3751914 1.828093,-1.8826968 -0.144342,0.025259 -0.498424,0.1478094 -0.433011,0.075776 0.07166,-0.078895 0.294049,-0.091003 0.458803,-0.1041801 0.474421,-0.037946 0.924944,0.2497635 1.145428,0.428519 0,0 0.986694,-0.294769 0.986694,-0.294769 z" />
    <path
       style="fill:#808000;stroke-width:0.0552306"
       id="path896"
       d="m 37.658485,5.1401823 c -1.023808,0.1506423 -1.892024,0.3873492 -2.786315,0.7012349 -0.141309,0.049597 -0.251008,0.120317 -0.376514,0.1804757 -0.453345,0.2527445 -0.951842,0.4940883 -1.313626,0.7877404 -0.177948,0.1444305 -0.240457,0.2358951 -0.369334,0.3908005 -0.408442,0.591824 -0.238661,0.7328468 0.493934,1.2299415 0.853368,0.4926816 1.829561,0.9259894 2.958432,1.2330912 0.106178,0.01809 0.208152,0.045493 0.318531,0.054275 1.082984,0.086184 2.409181,-0.4798222 3.181415,-0.7398238 1.326746,-0.5362648 2.125996,-1.3065888 2.814531,-2.089152 0.203349,-0.3236268 0.738625,-0.8440324 0.633367,-1.1987208 -0.01564,-0.052839 -0.05851,-0.1024553 -0.08777,-0.1536821 -0.36403,-0.4578476 -1.204607,-0.5267658 -2.037214,-0.6355114 -0.599144,-0.046656 -1.227151,-0.1150851 -1.82919,-0.036762 -0.290549,0.037801 -0.477776,0.093687 -0.745678,0.160941 -0.702576,0.1686117 -1.257083,0.3596647 -1.814122,0.6141082 0,0 1.036398,-0.2200573 1.036398,-0.2200573 v 0 c 0.251288,-0.109982 1.206176,-0.4590392 -0.08852,-0.031021 0.233627,-0.062762 0.471952,-0.1340081 0.725691,-0.1737531 0.592099,-0.092746 1.218549,-0.029791 1.814766,0.012506 0.780152,0.099587 1.613185,0.1602066 1.953247,0.5909419 0.02403,0.046638 0.05964,0.092054 0.07215,0.1399212 0.09521,0.3638397 -0.40332,0.8304017 -0.602437,1.1629619 C 40.9215,7.9047261 40.099054,8.663565 38.753208,9.189177 38.907964,9.155977 39.201179,9.0023172 39.217447,9.089568 39.234417,9.180481 38.915612,9.181133 38.759212,9.2213788 38.268305,9.3477019 37.729679,9.442335 37.192789,9.3432763 36.052999,9.0585389 35.064638,8.6391105 34.231433,8.1426482 34.094348,8.043556 33.939717,7.9505237 33.820171,7.8453727 c -0.332463,-0.2924304 -0.227392,-0.5883292 0.002,-0.8872688 0.398563,-0.4607895 0.991456,-0.8075023 1.69013,-1.153195 0.23084,-0.103716 0.932407,-0.3919553 -0.175907,-0.02153 -0.124678,0.041667 0.265293,-0.068716 0.401767,-0.098535 0.3329,-0.072739 0.682008,-0.1172742 1.022358,-0.1783141 0,0 0.898073,-0.3663526 0.898073,-0.3663526 z"
       inkscape:export-filename="/home/aki/logo.png"
       inkscape:export-xdpi="96"
       inkscape:export-ydpi="96" />
    <path
       style="fill:#808000;stroke-width:0.0535719"
       id="path914"
       d="m 1.3810783,1.3664479 c 0.044932,0.9330659 0.040976,1.8663654 0.086754,2.7994378 0.074447,1.0193078 0.02001,2.0428686 0.3015358,3.0543475 0.1587274,0.4988965 0.3379996,1.004965 0.7257044,1.4716851 0.083878,0.1009721 0.1886707,0.1968051 0.2830056,0.2952072 0.3939012,0.4805357 1.114024,0.8052007 1.8507092,1.1365165 0.5422429,0.277958 1.2354129,0.411264 1.9281038,0.549301 1.1007799,0.219361 0.1237626,0.0318 1.4166303,0.275152 1.6967632,0.293814 3.3365516,0.661197 4.9427376,1.069325 0.993959,0.286234 2.084434,0.413573 3.199287,0.482722 1.460558,0.112213 2.927533,0.182819 4.40325,0.193249 2.237648,-0.02895 4.441253,-0.256212 6.645538,-0.440166 1.400537,-0.105873 2.804552,-0.214279 4.218789,-0.250934 0.213192,-0.0017 0.426364,-0.0044 0.639573,-0.0051 0.202113,-6.59e-4 0.404314,-0.0019 0.606347,0.0011 0.414176,0.0062 0.895609,0.05731 1.304124,-0.0092 0.12073,-0.01965 0.226955,-0.0584 0.340434,-0.0876 0.412788,-0.151006 0.850702,-0.284702 1.238371,-0.453018 0.15302,-0.06644 0.549745,-0.411515 0.64281,-0.488646 0.273666,-0.226815 0.544758,-0.449928 0.849466,-0.665593 0.281391,-0.161985 0.587076,-0.3126375 0.926598,-0.4408856 0.09809,-0.037051 0.408346,-0.1356187 0.303105,-0.1044243 -1.065041,0.3156939 -0.69061,0.2160892 -0.337836,0.1282415 0.499099,-0.1270289 1.0537,-0.1550761 1.58784,-0.2184895 0.918238,-0.1324427 1.86282,-0.1989176 2.789261,-0.312547 0.76198,-0.1112944 1.503171,-0.2655729 2.207017,-0.4546526 1.014077,-0.2090641 1.671523,-0.5855676 2.447176,-0.9501912 0.793106,-0.3473401 1.194563,-0.9374873 1.578633,-1.4255776 0.85208,-1.1066344 1.321399,-2.2782372 1.775571,-3.4434474 0.09353,-0.3602551 0.425734,-0.9318913 0.227626,-1.299624 -0.02228,-0.041355 -0.06883,-0.078004 -0.10324,-0.1170067 -0.07581,-0.029959 -0.141138,-0.069156 -0.227453,-0.089878 -0.183289,-0.044001 -0.673046,-0.088781 -0.854141,-0.1044823 -0.519551,-0.045045 -1.039648,-0.065951 -1.564552,-0.083966 -1.554295,-0.054898 -3.10557,-0.1351954 -4.663281,-0.153326 -1.489839,-0.00291 -2.979473,0.013676 -4.469024,0.02684 -0.592786,0.00298 -1.185548,0.015672 -1.777914,0.00195 -0.893578,-0.037687 -1.783131,-0.08706 -2.678686,-0.1106778 -2.327651,-0.045523 -4.654612,0.027015 -6.978781,0.085796 -2.653478,0.060282 -5.311914,-0.04742 -7.961729,-0.1196057 C 16.223609,1.0178755 13.239918,0.79125837 10.257853,0.57878505 8.9513278,0.49442755 7.6301132,0.40916515 6.3100105,0.42991513 5.5377657,0.44205358 5.1012198,0.47856583 4.3328194,0.52664056 3.5674167,0.58560347 2.7985246,0.63531556 2.0396729,0.71556743 1.8227871,0.73850415 1.4540522,0.77615147 1.2437252,0.83585822 0.84921376,0.94785042 0.47096346,1.0749197 0.08458258,1.1944506 c -0.03990771,0.036307 -0.09561165,0.068968 -0.11972305,0.1089204 -0.1271047,0.2106104 0.11899579,0.468714 0.29403279,0.6507085 0.0865852,0.086107 0.13114024,0.1496084 0.28283608,0.2144361 0.37189797,0.1589321 0.9098053,0.2731803 1.3401081,0.3852508 0,0 0.9020153,-0.3117364 0.9020153,-0.3117364 v 0 C 2.3629371,2.1354994 1.8404465,2.0267022 1.4757753,1.8733948 1.3355826,1.8144578 1.2887035,1.7502543 1.2071239,1.6707284 1.0508193,1.5087916 0.80029581,1.2586436 0.96722605,1.073612 0.99739737,1.0401689 1.054668,1.0155362 1.0983893,0.98649819 0.86411876,1.0529145 0.62008945,1.1106344 0.39557765,1.1857468 0.29306903,1.2200422 0.61469206,1.1294746 0.73026799,1.1096565 1.6303674,0.95531352 2.6006739,0.93767218 3.5234787,0.8428183 4.2773385,0.79436362 4.7257579,0.7561685 5.4832131,0.74414476 6.8163399,0.72298281 8.1544615,0.79445447 9.4771525,0.86814038 12.464921,1.0641484 15.444415,1.3244781 18.454788,1.4008376 c 1.588176,0.037168 3.175337,0.079952 4.762785,0.1247275 0.876916,0.024735 1.501574,0.050515 2.358654,0.04194 0.265528,-0.00266 0.530314,-0.015629 0.795468,-0.023442 2.314669,-0.072306 4.636812,-0.157971 6.955423,-0.084428 0.884041,0.03162 1.76208,0.088052 2.645585,0.1231753 0.59735,0.022821 1.194386,0.00949 1.792568,-0.00174 1.501864,-0.025294 3.004243,-0.050679 4.507108,-0.044613 1.546196,0.020543 3.086541,0.1008634 4.628269,0.1637031 0.671825,0.02356 1.339416,0.052299 1.99918,0.1264964 0.120539,0.013558 0.244031,0.023223 0.35914,0.04638 0.07213,0.014508 0.130362,0.043472 0.195549,0.065208 0.359773,0.3913877 0.0034,0.9633429 -0.08564,1.3662856 -0.423848,1.1676096 -0.895009,2.3394038 -1.795358,3.4360934 -0.421235,0.5029989 -0.817935,1.0551902 -1.646129,1.4151145 -0.341502,0.1659927 -0.662722,0.3412969 -1.034912,0.4892684 -0.08091,0.032166 -0.340394,0.1151677 -0.248931,0.09205 0.235105,-0.05942 0.454756,-0.1343595 0.682136,-0.2015393 -0.70056,0.1980136 -1.447674,0.3523433 -2.208809,0.4731822 -0.917844,0.1177581 -1.856339,0.177178 -2.76963,0.305157 -0.536042,0.067072 -1.09612,0.087996 -1.602961,0.2095597 -1.022116,0.2474594 -1.992428,0.5377146 -2.720544,0.9933396 -0.409205,0.300186 -0.745927,0.62594 -1.159026,0.924282 -0.106273,0.07676 -0.480494,0.161738 -0.340275,0.221668 0.16227,0.06936 0.391991,-0.0772 0.587984,-0.115795 -0.105663,0.0341 -0.20149,0.07854 -0.317009,0.102276 -0.402113,0.08263 -0.902032,0.03077 -1.314937,0.02504 -0.203431,-0.0028 -0.407003,-0.0015 -0.610499,-7.6e-4 -0.215193,7.6e-4 -0.430342,0.0035 -0.645516,0.0053 -1.429426,0.03026 -2.845499,0.142671 -4.257859,0.258397 -2.189907,0.189536 -4.379867,0.418333 -6.606887,0.436663 -1.467577,-0.0071 -2.928956,-0.06703 -4.377382,-0.196119 -1.110729,-0.06306 -2.198814,-0.181442 -3.192402,-0.4629 C 12.169294,11.315499 10.512124,10.962354 8.8247642,10.64735 8.5637,10.595401 8.3026356,10.543453 8.0415714,10.491503 7.8383401,10.448974 7.6361358,10.405071 7.4318794,10.363915 6.7518775,10.226899 6.0635424,10.105815 5.5349418,9.8275713 4.8123066,9.5007973 4.0900256,9.183883 3.690857,8.7145148 3.5984138,8.6179713 3.4947627,8.5241596 3.413528,8.424883 3.0337976,7.9608161 2.8716862,7.4566229 2.6942843,6.9639057 2.3948657,5.9615964 2.4016597,4.945811 2.3318402,3.9339214 2.3057145,2.9905851 2.3169636,2.0470063 2.3640559,1.1038496 c 0,0 -0.9829772,0.2626019 -0.9829772,0.2626019 z" />
    <circle
       id="path950"
       style="fill:#808000;stroke:#000000;stroke-width:0.264583"
       cx="172.18968"
       cy="-52.050949"
       r="0.080341138" />
    <circle
       id="path952"
       style="fill:#808000;stroke:#000000;stroke-width:0.264583"
       cx="172.18968"
       cy="-52.050949"
       r="0.080341138" />
  </g>
</svg>
