<?xml version="1.0" encoding="UTF-8" standalone="no"?>
<!-- Created with Inkscape (http://www.inkscape.org/) -->

<svg
   width="100.70081"
   height="150.51965"
   viewBox="0 0 26.643756 39.824993"
   version="1.1"
   id="svg5"
   inkscape:version="1.1.2 (0a00cf5339, 2022-02-04)"
   sodipodi:docname="product.svg"
   xmlns:inkscape="http://www.inkscape.org/namespaces/inkscape"
   xmlns:sodipodi="http://sodipodi.sourceforge.net/DTD/sodipodi-0.dtd"
   xmlns="http://www.w3.org/2000/svg"
   xmlns:svg="http://www.w3.org/2000/svg">
  <sodipodi:namedview
     id="namedview7"
     pagecolor="#ffffff"
     bordercolor="#666666"
     borderopacity="1.0"
     inkscape:pageshadow="2"
     inkscape:pageopacity="0.0"
     inkscape:pagecheckerboard="0"
     inkscape:document-units="mm"
     showgrid="false"
     units="px"
     width="10.70081px"
     inkscape:zoom="2.8873693"
     inkscape:cx="123.64196"
     inkscape:cy="100.43745"
     inkscape:window-width="3840"
     inkscape:window-height="1012"
     inkscape:window-x="0"
     inkscape:window-y="0"
     inkscape:window-maximized="1"
     inkscape:current-layer="layer1" />
  <defs
     id="defs2" />
  <g
     inkscape:label="Layer 1"
     inkscape:groupmode="layer"
     id="layer1">
    <path
       style="fill:none;stroke:#000000;stroke-width:0.264583px;stroke-linecap:butt;stroke-linejoin:miter;stroke-opacity:1"
       d="M 3.2782126,4.6372803 C 3.3699336,5.553095 3.0552591,6.4445387 2.9336875,7.3312516 2.8318679,8.0738987 2.7439929,8.8029297 2.5793076,9.5371522 2.5184379,9.80853 2.6990521,10.148192 2.4876729,10.359572"
       id="path890" />
    <path
       style="fill:none;stroke:#000000;stroke-width:0.264583px;stroke-linecap:butt;stroke-linejoin:miter;stroke-opacity:1"
       d="M 3.2782126,4.6372803 C 3.9913488,4.3206516 4.6171686,3.8448461 5.3091437,3.4904341 5.5323118,3.376133 6.0798204,3.3424301 6.3233003,3.3987994 c 0.027557,0.00638 -0.00479,0.05698 0,0.084859 0.025839,0.150509 0.034219,0.3073688 0.091635,0.4488754 0.01134,0.027951 0.066363,-0.0181 0.090494,0 0.059519,0.044643 -0.019648,0.5493491 0,0.7030971 C 6.555982,5.0312375 6.7438531,5.6242314 6.6080147,6.0308735 6.5718522,6.1391281 6.4500312,6.2066714 6.4193311,6.3166 c -0.051344,0.1838521 0.1315521,0.4343431 0,0.5726612 -0.1586934,0.1668553 -0.6120366,0.061648 -0.8185939,0.090485 -0.467419,0.065256 -1.1064377,0.077903 -1.4975993,0.2808859 -0.089712,0.046554 -0.2021438,0 -0.3032157,0 -0.2671561,0 -0.5353378,-0.023384 -0.8014684,0 -0.1072274,0.00942 -0.200293,0.093443 -0.3078578,0.097476 -0.086181,0.00323 0,-0.1724824 0,-0.2587239"
       id="path892" />
    <path
       style="fill:none;stroke:#000000;stroke-width:0.264583px;stroke-linecap:butt;stroke-linejoin:miter;stroke-opacity:1"
       d="m 8.403438,4.6209518 c 0.1480103,0.6061562 0.082339,1.2542486 0.082339,1.8725026 0,0.4573627 0,0.9147254 0,1.3720881 0,0.2856375 0.053697,0.6700081 0,0.9527855 -0.03964,0.2087538 -0.1795425,0.4067609 -0.1821283,0.336007 -0.0023,-0.062811 0.072406,-0.1069382 0.08433,-0.1686496 0.053945,-0.2791849 -0.024183,-0.5697278 0,-0.8530463 C 8.458723,7.3038141 8.7632491,7.1935297 9.1764719,6.5902905 9.2326464,6.5082848 9.1967628,6.3757068 9.2681403,6.306527 9.9697835,5.6264833 11.260384,6.168287 12.089365,5.3393064"
       id="path894" />
    <path
       style="fill:none;stroke:#000000;stroke-width:0.264583px;stroke-linecap:butt;stroke-linejoin:miter;stroke-opacity:1"
       d="m 17.971539,6.3871689 c -0.601301,0.038384 -1.211068,-0.070253 -1.796397,0.1221443 -5.03e-4,1.654e-4 -0.856791,0.4284885 -0.85723,0.4286179 -0.337736,0.099578 -0.296865,-0.1671005 -0.577303,0.18601 -0.26873,0.3383671 0.04849,0.2113701 -0.09163,0.5598364 -0.03302,0.082109 -0.165079,0.1021834 -0.187733,0.1877327 -0.150525,0.5684424 0.172325,1.2059763 0.355689,1.7134533 0.154746,0.4282745 0.304466,1.1991395 0.69631,1.5230385 0.601571,0.497261 0.502124,0.259022 1.206207,0.478627 0.18365,0.05728 0.280995,0.277671 0.456865,0.365281 0.109772,0.05468 0.250493,0.03539 0.367915,0 0.877996,-0.264589 1.204226,-0.995025 1.402922,-1.836641 0.07236,-0.3064874 -0.03318,-0.6315793 0,-0.9447396 0.02756,-0.2601058 0.242469,-1.3014439 0.102966,-1.5784928 -0.01366,-0.027128 -0.06973,0.021561 -0.09112,0 -0.102017,-0.1028152 -0.213084,-0.3866814 -0.37358,-0.4669295 -0.144662,-0.072331 -0.683783,-0.024035 -0.792844,0.085021"
       id="path908" />
    <path
       style="fill:none;stroke:#000000;stroke-width:0.264583px;stroke-linecap:butt;stroke-linejoin:miter;stroke-opacity:1"
       d="m 6.9397654,13.243267 c 0,3.883143 -0.043293,-0.960966 0.1384141,3.101422 0.022302,0.498619 0,0.998234 0,1.497351 0,0.276839 0,0.553679 0,0.830518 0,0.468031 0.062104,0.07476 -0.081668,0.186312 -0.016687,0.01295 0,0.08449 0,0.06337 0,-0.259977 0.00425,-0.315692 -0.1272058,-0.716341 C 6.6978651,17.68338 6.2282678,17.368745 5.828258,17.032313 5.4871942,16.745459 5.169042,16.411314 4.766841,16.219366 4.5839117,16.132064 4.3633056,16.166489 4.1687318,16.109694 4.0857595,16.085474 4.0625823,15.965195 3.9853729,15.92634 3.649088,15.757109 3.1883313,16.715964 3.1013191,16.835098 c -0.1969114,0.269606 -0.3326599,0.469197 -0.2778237,0.837744 0.086745,0.583 0.4251828,2.265303 1.0875473,2.486199 0.2555643,0.08523 0.5967429,0.120551 0.861626,0.195574 0.5581544,0.158086 0.844519,0.388101 1.3651473,-0.150097 0.3460745,-0.357754 0.595312,-1.683778 0.7426867,-2.172785 0.040687,-0.135006 0.031603,-0.288558 0.1026081,-0.41038 0.2429901,-0.41689 0.4190902,-0.327382 0.4190902,-0.78571"
       id="path910" />
    <path
       style="fill:none;stroke:#000000;stroke-width:0.264583px;stroke-linecap:butt;stroke-linejoin:miter;stroke-opacity:1"
       d="m 11.083128,16.151246 c -0.20012,0.683724 -0.350355,1.045064 -0.408363,1.727883 -0.01937,0.227979 -0.166356,1.384561 -0.01896,1.571871 0.306256,0.389192 1.656507,0.129122 1.836632,-0.311968 0.06282,-0.153843 0.04758,-0.329808 0.09168,-0.490026 0.171868,-0.624443 0.308751,-1.113016 0.691478,-1.619897 0.06301,-0.08345 0.661303,-0.814934 0.754667,-0.752332 0.07328,0.04914 -0.09856,0.766759 -0.127833,0.943912 -0.09819,0.594303 -0.223424,1.185247 -0.285195,1.784431 -0.03357,0.325605 0,0.654661 0,0.981992 0,0.05071 -0.04501,0.802733 0,0.848493 0.05937,0.06035 0.137971,-0.107548 0.175831,-0.183269 0.925215,-1.850447 -0.944306,1.95984 0.525927,-1.503092 0.07867,-0.185302 0.23632,-0.325971 0.35448,-0.488957"
       id="path912" />
    <path
       style="fill:none;stroke:#000000;stroke-width:0.264583px;stroke-linecap:butt;stroke-linejoin:miter;stroke-opacity:1"
       d="m 20.898906,17.383553 c -0.321422,-0.771767 -0.589989,-1.214901 -1.039951,-0.30578 -0.452178,0.913596 -0.741132,1.571965 -0.741132,2.553292 0,0.116379 -0.05867,0.529914 0.09169,0.649802 0.155444,0.123944 0.331869,0.223559 0.515166,0.30055 0.250773,0.105334 0.667852,-0.04527 0.939535,0 0.09669,0.01611 0.182779,0.111785 0.278987,0.093 0.08479,-0.01656 0.165215,-0.09878 0.18327,-0.18327 0.117372,-0.549217 -0.123952,-0.769262 0.307063,-1.200278"
       id="path914" />
    <path
       style="fill:none;stroke:#000000;stroke-width:0.264583px;stroke-linecap:butt;stroke-linejoin:miter;stroke-opacity:1"
       d="m 15.366716,25.296725 c -2.176155,2.045663 -3.122775,3.027442 -3.173647,5.92025 -0.0031,0.176128 0.221441,0.780439 0.371069,0.828159 0.940165,0.299837 1.930401,0.41986 2.907804,0.555853 0.273465,0.03805 1.317308,0.120748 1.60278,-0.307459 0.105274,-0.157911 0.03613,-0.383043 0,-0.569357 -0.15979,-0.824058 -0.367546,-1.638091 -0.551319,-2.457135"
       id="path916" />
    <path
       style="fill:none;stroke:#000000;stroke-width:0.264583px;stroke-linecap:butt;stroke-linejoin:miter;stroke-opacity:1"
       d="m 12.620538,27.211792 c -0.105696,-0.136242 -0.211391,-0.272484 -0.317087,-0.408725 -0.02757,0 -0.06222,0.01844 -0.08272,0 -0.255899,-0.230167 1.750524,-0.336439 1.817236,-0.336439 0.377527,0 1.463629,0.137916 1.813891,0 0.853121,-0.335915 1.799482,-0.573202 2.719858,-0.692473 0.4529,-0.05869 0.252085,0.18327 0.478499,0.18327"
       id="path918" />
    <path
       style="fill:none;stroke:#000000;stroke-width:0.264583px;stroke-linecap:butt;stroke-linejoin:miter;stroke-opacity:1"
       d="m 15.577301,39.399678 c -0.747987,0.170243 -1.602222,0.428418 -2.364941,0.457099 -0.587105,0.02207 -1.172078,-0.08773 -1.759248,-0.108005 -0.455956,-0.01574 -0.914618,0.04438 -1.368682,0 -0.7872559,-0.07694 -1.5908551,-0.475933 -2.3749978,-0.579943 -1.9989601,0 -0.044124,0.09799 -1.5968403,-0.213892 -0.13468,-0.02705 -0.2770134,0.0249 -0.4121102,0 -0.043145,-0.0079 -0.051506,-0.07901 -0.093067,-0.09306 -0.2331779,-0.07882 -0.583442,0.03277 -0.8265023,0 -0.833197,-0.11235 -1.6106611,-0.115065 -2.4624599,-0.115065 -0.3207652,0 -0.5309685,0.01265 -0.7852825,0.182168 -0.045294,0.03019 -0.2980045,0.153379 -0.3085849,0.136361 -0.076584,-0.123176 0,-1.240324 0,-1.385392 0,-0.432462 -0.056672,-0.772123 -0.1154271,-1.201008 -0.077223,-0.563686 0.048357,-1.16596 0,-1.731758 -0.095464,-1.116971 -0.28512828,-2.223828 -0.41266951,-3.326099 -0.0626837,-0.541742 0,-1.139515 0,-1.686115 0,-0.328438 -0.0630653,-0.69769 0,-1.017508 0.10941765,-0.554876 0.0604027,-0.01574 0.2774546,-0.558332 0.12745991,-0.318615 0.22870191,-0.760636 0.27496051,-1.0998 0.060502,-0.443598 0,-1.003529 0,-1.452408 0,-1.152794 0,-2.305588 0,-3.458381 0,-0.355832 -0.041247,-0.758556 0,-1.107307 0.03163,-0.267437 0.2270626,-0.718409 0.1171274,-1.011917 -0.42941429,-1.146464 -0.48042241,-2.648911 -0.48042241,-3.926482 0,-0.458118 0.0725252,-1.059506 0,-1.526171 -0.0524497,-0.337488 -0.095276,-0.684431 -0.20365016,-0.996187 -0.10688688,-0.307477 0,-2.024249 0,-2.414777 0,-0.313794 -0.19825584,-0.704841 -0.0916347,-1.01464 0.0990725,-0.2878663 0.23290139,-0.5340601 0.28587758,-0.8451386 0.0925261,-0.5433169 -0.0154231,-1.087478 0.0941404,-1.630644 0.0546322,-0.2708418 -0.0530889,-0.5740138 0,-0.845222 C 1.0812212,6.2636188 1.3388155,5.4127516 1.061473,4.8711521 0.9813543,4.7146948 1.106293,4.4499987 1.061473,4.2758058 0.9917696,4.0049047 0.92930696,3.4940494 0.81411963,3.3288568 c -0.0492797,-0.070673 0.02929,-0.2438578 0,-0.3274248 C 0.73589723,2.7782565 0.6067367,2.558689 0.54030043,2.3610822 0.52956436,2.3291491 0.39114372,1.193756 0.4486657,1.136245 0.56020112,1.024731 1.1292679,0.98709817 1.3326747,0.88374894 1.411789,0.84355166 1.4472874,0.74502795 1.5209219,0.69550173 c 0.075754,-0.0509521 0.1843714,0.017943 0.2738863,0 0.21313,-0.0427209 0.4345508,-0.039753 0.6456379,-0.0916347 0.029495,-0.00725 -0.017691,-0.0664308 0,-0.0911202 0.059922,-0.0836267 0.3779474,0.11903038 0.435321,0.11903038 0.5856607,0 1.3358378,0.45295239 1.9653146,0.55755319 0.2606934,0.04332 0.561136,-0.062898 0.8174305,0 0.3541236,0.086906 0.7423142,0.1265929 1.110143,0.1793656 0.29977,0.043008 0.6285679,-0.053175 0.9267838,0 0.4153958,0.07407 0.7828301,0.1026361 1.2123255,0.1026361 0.396934,0 0.6248683,0.3553787 1.0423229,0.3823082 0.9394706,0.060604 1.9606856,0.061764 2.8840896,-0.091696 0.423055,-0.070308 0.851084,0.1734944 1.299419,0.097577 0.338986,-0.057401 0.577614,-0.1000381 0.930643,-0.1000381 0.186989,0 0.536056,0.076858 0.689766,0 0.03815,-0.019076 0.04908,-0.080232 0.09048,-0.090485 0.23652,-0.058573 0.586252,0.0333 0.82243,0 0.412176,-0.058115 0.830191,-0.2076009 1.239217,-0.2910203 1.091157,-0.2225378 2.297314,0.2494623 3.376738,-0.094546 0.795353,-0.253476 0.0117,0.035657 0.379973,-0.1908312 0.314963,-0.19370245 1.428729,0.1771241 1.785222,0 0.527318,-0.2619991 0.982451,-0.23960011 1.719136,-0.23960011 0.06682,0 0.779166,-0.0555261 0.805808,0.0337044 0.127002,0.42535791 0.01607,1.06109711 -0.09164,1.48714051 -0.08765,0.3467071 -0.0532,2.6473269 0,2.9031332 0.119777,0.5759051 -0.03287,1.642147 0.09748,2.0332158 0.229275,0.6878227 0.04393,1.4058243 0.18327,1.9629712 0.14286,0.5712407 0.09168,1.1974623 0.09168,1.8012063 0,0.356381 -0.02753,0.01434 0.093,0.370686 0.163105,0.482211 -0.03651,3.22522 -0.184646,3.823351 -0.07873,0.31789 0.07886,0.694374 0,1.012227 -0.04012,0.161717 -0.243513,0.325558 -0.27666,0.462741 -0.10855,0.449254 -0.180052,0.910541 -0.278394,1.392857 -0.06478,0.317694 0,0.750075 0,1.065025 0,1.193157 0.127217,2.355128 0.127217,3.547951 0,0.811154 0.104596,1.731581 0,2.549562 -0.095,0.742943 -0.1828,1.465991 -0.247085,2.215783 -0.09037,1.054042 0.01494,2.098183 -0.09414,3.14688 -0.03349,0.321937 -0.164852,0.656783 -0.200116,0.984456 -0.07123,0.661916 0.06295,2.74392 -0.182129,3.237151 -0.08377,0.168598 0.08418,0.462804 0,0.631163 -0.03839,0.07679 -0.143635,0.105379 -0.182117,0.182124 -0.0598,0.119255 0.06077,0.330366 0,0.44904 -0.243353,0.47525 -0.283885,1.333881 -0.383955,1.889284 -0.0536,0.29746 0.145845,1.182264 0.107261,1.220848 -0.09421,0.09421 -0.469174,-0.09044 -0.566833,0 -0.02075,0.01921 0.02537,0.07236 0,0.08486 -0.324527,0.159964 -0.707845,0.131754 -1.044001,0.198662 -0.519593,0.103415 -1.750534,0.164999 -2.273396,-0.08397 -0.08974,-0.04273 -0.134614,-0.186081 -0.22563,-0.225641 -0.823956,-0.35813 -1.694174,-0.67314 -2.602496,-0.9108 -0.221059,-0.05784 -0.621272,0.07504 -0.785126,0.09164 -0.930041,0.09419 -1.800945,-0.234079 -1.477264,0.989431 z"
       id="path949" />
  </g>
</svg>
