<?xml version="1.0" encoding="UTF-8" standalone="no"?>
<!-- Created with Inkscape (http://www.inkscape.org/) -->

<svg
   width="800.70081"
   height="500.51965"
   viewBox="0 0 211.85209 132.42916"
   version="1.1"
   id="svg5"
   inkscape:version="1.1.2 (0a00cf5339, 2022-02-04)"
   sodipodi:docname="some_image.svg"
   xmlns:inkscape="http://www.inkscape.org/namespaces/inkscape"
   xmlns:sodipodi="http://sodipodi.sourceforge.net/DTD/sodipodi-0.dtd"
   xmlns="http://www.w3.org/2000/svg"
   xmlns:svg="http://www.w3.org/2000/svg">
  <sodipodi:namedview
     id="namedview7"
     pagecolor="#ffffff"
     bordercolor="#666666"
     borderopacity="1.0"
     inkscape:pageshadow="2"
     inkscape:pageopacity="0.0"
     inkscape:pagecheckerboard="0"
     inkscape:document-units="mm"
     showgrid="false"
     inkscape:zoom="0.81285304"
     inkscape:cx="740.62931"
     inkscape:cy="280.88865"
     inkscape:window-width="3840"
     inkscape:window-height="1012"
     inkscape:window-x="0"
     inkscape:window-y="0"
     inkscape:window-maximized="1"
     inkscape:current-layer="layer1"
     units="px"
     width="500.70081px" />
  <defs
     id="defs2" />
  <g
     inkscape:label="Layer 1"
     inkscape:groupmode="layer"
     id="layer1">
    <path
       style="fill:#808000;stroke-width:0.264583"
       id="path873"
       d="M 3.5699551,128.84971 C 2.8656613,128.06844 2.1230644,127.27288 1.7225045,126.27888 0.87256921,124.16973 0.78198,121.71632 0.51902648,119.49674 -0.16925215,112.80901 0.16554078,106.09832 0.76829329,99.421806 1.147994,96.064344 1.4985111,92.70584 1.7863808,89.33931 2.1033054,86.296017 2.0496374,83.235534 2.1263965,80.181608 2.2708346,76.809977 2.2879767,73.43214 2.4796153,70.06278 2.5935074,67.269298 2.9144444,64.491933 3.1357522,61.706727 3.7050638,56.016069 4.5301296,50.356767 5.2603664,44.685579 5.610294,41.340844 6.2063576,38.026845 6.5707587,34.68438 6.7141327,33.204922 7.0259574,31.750886 7.2180528,30.278414 7.4455416,28.896968 7.2783866,27.541138 7.1141621,26.167291 6.4838024,22.261461 6.5521479,18.299621 6.5060065,14.357564 6.4771163,12.138469 6.4419818,9.9194627 6.4077283,7.7004459 6.4439513,6.5797636 6.2554609,5.4749339 6.067176,4.3748634 5.884183,3.398933 5.8766633,2.3963874 5.4295,1.4943275 5.0132739,0.3177042 6.1561244,-2.1463693 2.4438398,3.2766994 c -0.252991,0.3695804 0.883222,0.1496685 1.3262022,0.2157201 3.8353735,0.5718818 2.9760119,0.4177543 7.806164,0.9170284 11.664957,1.2236169 23.352802,2.2178438 35.081506,2.5283027 6.618861,0.1752013 8.64181,0.097992 15.012371,0.027191 5.663911,-0.2095249 11.339398,-0.3981582 16.984482,-0.937034 1.770412,-0.1690024 3.243175,-0.3739912 5.01315,-0.6017715 6.207141,-0.7103505 12.451334,-1.0095595 18.692455,-1.2182891 3.43464,-0.2448192 6.85589,0.2174171 10.2839,0.3172174 1.08737,0.031657 2.17551,0.025792 3.26327,0.038687 4.35063,0.042606 8.70452,-0.1619623 13.05145,0.09819 1.69814,0.1016288 2.76876,0.2365004 4.42026,0.4167473 2.34967,0.3067862 4.70215,0.5916615 7.06938,0.7137442 2.43549,0.2470801 4.7923,-0.3333922 7.16676,-0.7740327 0.78127,-0.1449837 1.56502,-0.2762366 2.34753,-0.414355 5.31633,-0.9905325 10.62045,-2.0060558 15.99148,-2.6546263 2.73459,-0.3901472 5.49358,-0.3194464 8.24515,-0.2885262 3.59929,0.2685177 7.19064,0.622127 10.79302,0.8522768 1.78103,0.1078154 3.56388,0.179558 5.34806,0.1969735 1.09865,0.054779 2.17477,-0.1858222 3.25678,-0.3270418 2.28992,-0.2225249 4.57893,-0.3772826 6.87982,-0.4064137 1.56357,0.1127096 3.27912,-0.1836594 4.78569,0.3676738 0.0769,0.07583 0.17274,0.1363282 0.23061,0.227491 0.13106,0.2064587 0.26618,0.7608714 0.31845,0.952853 0.19616,0.720485 0.34336,1.4311085 0.46288,2.1681662 0.15122,2.2764718 0.87174,4.4478765 1.50106,6.6247915 0.29293,1.057273 0.70207,2.084913 0.92314,3.161782 0.0883,0.430188 0.25946,1.58586 0.31875,1.971753 0.48479,2.656282 0.8714,5.326866 1.22143,8.003925 0.25719,2.277876 0.51218,4.555455 0.66367,6.843159 0.27256,3.39488 0.005,6.7907 -0.22639,10.178294 -0.23339,3.06888 -0.0963,6.150699 -0.0254,9.223588 0.0778,2.585259 0.11584,5.167397 -0.008,7.751005 -0.0628,2.964704 0.18561,5.92273 0.3312,8.881669 0.0551,3.021054 0.33716,6.033566 0.38934,9.05393 -0.0886,2.477958 -0.29255,4.949449 -0.55722,7.414228 -0.28906,2.818723 -0.53057,5.640531 -0.81684,8.459915 -0.27772,2.468297 -0.61149,4.927544 -0.97191,7.384719 -0.22903,1.49556 -0.23117,3.01169 -0.25056,4.52085 0.002,1.09031 -0.16028,2.17206 -0.24143,3.25851 -0.22888,1.74591 -0.51174,3.48283 -0.71352,5.23269 -0.27436,2.18309 -0.51899,4.36527 -0.90064,6.53271 -0.22121,1.26898 -0.47311,2.53267 -0.76628,3.78684 -0.13043,0.74832 -0.28489,1.48346 -0.55663,2.19381 -0.40071,0.9321 -0.93246,1.80488 -1.44034,2.6825 -0.55944,0.87161 -0.99961,1.80798 -1.64063,2.62534 -1.11643,0.8003 -2.97374,2.05958 2.39314,-1.3392 0.1499,-0.0949 -0.32844,0.13685 -0.49954,0.18385 -0.56653,0.15561 -0.80827,0.14407 -1.40666,0.19148 -2.01016,-0.0222 -3.97751,-0.48278 -5.92585,-0.93225 -2.13609,-0.46701 -4.24439,-1.04455 -6.35675,-1.60521 -1.63043,-0.41809 -3.26676,-0.81753 -4.91614,-1.15414 -2.35045,-0.54019 -4.7621,-0.62172 -7.16185,-0.70834 -2.83827,-0.11878 -5.67618,0.088 -8.49684,0.38806 -3.04727,0.30733 -6.02237,0.99766 -8.94193,1.90241 -1.94959,0.63759 -3.87578,1.36253 -5.88767,1.78785 -0.12667,0.0268 -3.35301,0.598 -3.39745,0.60589 -3.10249,0.5328 -6.23756,0.91351 -9.38446,1.03311 -1.18222,0.0692 -2.33634,-0.10972 -3.41654,-0.59165 -1.05358,-0.54697 -2.19475,-0.6808 -3.3605,-0.75382 -3.14134,-0.0702 -6.28457,-0.0312 -9.42654,-0.0205 -4.31933,0.0185 -8.59598,-0.68476 -12.86525,-1.25913 -3.88301,-0.46574 -7.75221,-1.05786 -11.64763,-1.41307 -2.430499,-0.27696 -4.855379,-0.13161 -7.274083,0.15877 -1.865075,0.27867 -3.738205,0.48379 -5.620578,0.59303 -3.70776,0.0583 -7.418673,-0.11117 -11.127126,-0.17045 -6.522577,-0.0481 -13.044488,-0.0155 -19.566422,-0.13244 -3.710016,-0.0409 -7.419438,-0.25244 -11.130076,-0.19281 -3.311853,0.14328 -6.625452,0.22754 -9.939747,0.2862 -2.927284,0.0572 -5.84911,-0.11392 -8.776674,-0.0656 -2.920104,0.14781 -5.806517,0.66222 -8.7015,1.04945 -1.827813,0.21958 -3.650096,0.47664 -5.452322,0.85405 -1.479222,0.3902 -2.984381,0.63806 -4.5055582,0.78379 -0.9646708,0.0405 -1.9269313,-0.075 -2.8884485,-0.13848 -0.8011359,-0.0205 -1.5975476,-0.1096 -2.3200209,-0.47098 -0.6032124,-0.32185 -0.7694919,-0.9624 -1.0296176,-1.54588 -0.2375006,-0.68512 -0.426135,-1.38511 -0.7368378,-2.04248 -0.281355,-0.52411 -0.4691589,-1.08162 -0.72158,-1.62012 0,0 -3.4455939,1.94507 -3.4455939,1.94507 v 0 c 0.2399693,0.54536 0.4151343,1.11285 0.70806724,1.63334 0.30596953,0.65635 0.476106,1.36114 0.73073757,2.03738 0.29470468,0.65775 0.50996796,1.37283 1.16510979,1.76533 0.7383064,0.43725 1.5669907,0.60386 2.4226738,0.61298 0.9782538,0.055 1.9533973,0.16275 2.9333108,0.17993 1.5370513,-0.1306 3.0664559,-0.34555 4.5556967,-0.75986 1.796582,-0.40791 3.622601,-0.64555 5.447574,-0.88969 2.887615,-0.39831 5.767611,-0.90107 8.678798,-1.08848 2.932075,-0.0709 5.856155,0.0995 8.788011,0.0569 3.309271,-0.0699 6.618869,-0.14258 9.92633,-0.27478 3.738793,-0.11024 7.480811,0.10287 11.220066,0.10864 6.510812,0.0992 13.021652,0.0738 19.532629,0.15657 2.293972,0.0426 4.58705,0.0921 6.88013,0.17036 1.043914,0.0356 2.087089,0.10304 3.131574,0.11149 0.347919,0.003 0.695656,-0.0169 1.043485,-0.0254 1.894165,-0.089 3.77944,-0.29005 5.653452,-0.58164 2.40311,-0.31787 4.817134,-0.49247 7.237683,-0.23495 3.917437,0.32228 7.810777,0.88347 11.713397,1.34377 1.84483,0.25022 3.69117,0.48928 5.53572,0.74158 2.42616,0.33185 4.84452,0.67054 7.30212,0.6029 3.12082,-0.017 6.24287,-0.0456 9.36297,0.0367 1.1192,0.0574 2.23267,0.13111 3.25464,0.64073 1.10645,0.55678 2.31955,0.79323 3.55874,0.72398 3.16901,-0.11282 6.32721,-0.50528 9.45444,-1.01785 1.13181,-0.19946 2.27133,-0.35601 3.39898,-0.57775 2.02159,-0.39752 3.95626,-1.10891 5.90312,-1.7648 2.89613,-0.93303 5.85533,-1.64473 8.88831,-1.95783 2.8088,-0.3214 5.63795,-0.53635 8.46696,-0.43614 2.37475,0.0786 4.7649,0.1465 7.09112,0.68037 1.648,0.32124 3.27955,0.72501 4.90815,1.13167 2.12322,0.54484 4.23548,1.13374 6.37777,1.60386 1.96743,0.45815 3.93993,0.94114 5.96708,1.0379 2.51387,-0.0627 4.5128,-0.95809 6.34223,-2.94982 0.58781,-0.85724 1.06499,-1.77859 1.6131,-2.66081 0.5135,-0.89444 1.05579,-1.78276 1.42056,-2.75093 0.24662,-0.72934 0.38979,-1.48097 0.53407,-2.23618 0.28004,-1.25639 0.51319,-2.52349 0.72843,-3.79241 0.36337,-2.17152 0.59664,-4.35715 0.87233,-6.54106 0.21878,-1.7625 0.53785,-3.50826 0.75204,-5.27109 0.0834,-1.09032 0.24025,-2.17767 0.21502,-3.27343 0.0159,-1.49395 0.0457,-2.99144 0.2668,-4.472046 0.33556,-2.455648 0.64059,-4.914204 0.92232,-7.376742 0.29633,-2.820058 0.54056,-5.643406 0.82832,-8.464097 0.26367,-2.480781 0.49294,-4.96901 0.54325,-7.464552 -0.0956,-3.019015 -0.35366,-6.031703 -0.41319,-9.052687 -0.14765,-2.950771 -0.38744,-5.902735 -0.2927,-8.859284 0.11519,-2.589816 0.0546,-5.17738 -0.0183,-7.76831 -0.0751,-3.059808 -0.20634,-6.127527 0.0243,-9.183825 0.21689,-3.408304 0.47878,-6.824813 0.23411,-10.240068 -0.15193,-2.294392 -0.4014,-4.579924 -0.6837,-6.861764 -0.36055,-2.679216 -0.75125,-5.352842 -1.21074,-8.01693 -0.0827,-0.567954 -0.19858,-1.433874 -0.31908,-2.012805 -0.22507,-1.08143 -0.63941,-2.111096 -0.94637,-3.169505 -0.64737,-2.16001 -1.32515,-4.3228779 -1.46366,-6.5891873 -0.13956,-0.8511106 -0.42163,-2.6121912 -0.87172,-3.33620913 -0.0857,-0.13781643 -0.21328,-0.24463044 -0.31992,-0.36694565 -1.432,-0.6975808 -3.39795,-0.34622957 -4.93708,-0.462604 -2.29434,0.0202568 -4.57672,0.13912677 -6.86175,0.34481172 -1.07925,0.09720665 -2.13472,0.38778976 -3.22451,0.35990043 -1.79648,-0.001942 -3.59264,-0.0469258 -5.38672,-0.14256371 -3.60441,-0.20390373 -7.19899,-0.52366125 -10.79189,-0.87425257 -2.77856,-0.0587915 -5.56535,-0.11265376 -8.32635,0.28228805 -2.52332,0.30730575 -5.03323,0.65087864 -7.53741,1.09225071 -4.78918,0.84411695 -0.90225,0.20684516 -5.724,1.08306755 -0.91392,0.166079 -1.83142,0.3117871 -2.74713,0.4676807 -0.77918,0.1323107 -1.55978,0.2565014 -2.33754,0.396932 -2.33588,0.421762 -4.6517,1.0415408 -7.04713,0.801588 -2.3821,-0.1009163 -4.75145,-0.3559098 -7.11674,-0.6516613 -1.62973,-0.1683152 -2.81577,-0.3070901 -4.48177,-0.4035646 -4.35577,-0.2522321 -8.71678,-0.043586 -13.07593,-0.092603 -1.07107,-0.0187 -2.14261,-0.018979 -3.2132,-0.056101 C 112.32704,2.1680699 108.90095,1.6680426 105.46055,1.9377635 99.210697,2.189835 92.959406,2.4964471 86.735239,3.1369746 85.725475,3.2665902 82.758962,3.6533124 81.712225,3.7648602 76.005009,4.3730613 70.262998,4.6159882 64.532557,4.8786311 58.073609,5.0014184 56.127977,5.0995976 49.41535,4.9498588 37.757978,4.6898173 26.139906,3.7092916 14.569609,2.2851698 12.943408,2.0889706 11.314093,1.9170512 9.6910053,1.6965722 8.7827981,1.573202 7.8789709,1.4179666 6.9772399,1.2538281 6.5382761,1.1739254 6.0924823,0.82032868 5.6703089,0.96470112 2.4297031,2.0729053 1.2911815,1.7821717 1.9739401,3.4609592 c 0.4295396,0.8596046 0.3873479,1.8465062 0.5975783,2.769916 0.1835211,1.0842993 0.3295582,2.173428 0.3095083,3.276147 0.061466,2.2019878 0.1552279,4.4030918 0.1924249,6.6057758 0.068356,3.963997 -0.00563,7.944887 0.5520787,11.881216 0.140244,1.348378 0.2707087,2.684693 0.041132,4.034978 -0.2006163,1.470052 -0.486864,2.927641 -0.6241455,4.406434 -0.3416588,3.319209 -0.8434357,6.619894 -1.2004866,9.937491 -0.7221773,5.691838 -1.50971839,11.374964 -2.19060848,17.072059 -0.25316844,2.788968 -0.54339963,5.574784 -0.66590972,8.373999 -0.1792029,3.36536 -0.1441662,6.739986 -0.3055014,10.106716 -0.09144,3.053408 -0.1050251,6.111708 -0.3873818,9.156057 -0.2916467,3.349262 -0.6168552,6.695059 -0.9359385,10.041812 -0.2556636,3.15732 -0.4918272,6.32008 -0.5638243,9.48824 -0.066415,2.92254 -0.010708,4.11791 0.1419394,7.04525 0.062636,1.20118 0.1461201,2.40119 0.21918,3.60178 0.2414535,2.2888 0.3089295,4.79566 1.169167,6.97277 0.4102856,1.03835 1.18395544,1.86088 1.8823984,2.70475 0,0 3.3644044,-2.08664 3.3644043,-2.08664 z" />
    <path
       style="fill:none;stroke:#000000;stroke-width:0.264583px;stroke-linecap:butt;stroke-linejoin:miter;stroke-opacity:1"
       d="m 28.786714,24.959178 c 0.197109,-2.029765 0.806008,-4.508892 0.261699,-6.510845 -0.23396,-0.860496 -0.877025,-1.05294 -1.355915,-1.683073 -1.151337,-1.514946 -0.811972,-3.287037 -3.259454,-2.0463 -0.216514,0.109465 -0.433029,0.21893 -0.649543,0.328395 -0.216997,9.79e-4 -0.456849,-0.09404 -0.650993,0.0029 -0.09586,0.04786 0.07519,0.24372 0.0014,0.321434 -0.568066,0.598512 -2.908618,-0.524768 -3.546051,0.01579 -0.230517,0.195485 0.09962,0.619994 0.004,0.906727 -0.09705,0.291134 -0.511737,0.378966 -0.648094,0.653892 -0.599159,1.208037 -0.818984,2.428427 -0.642091,3.781535 0.238303,1.822859 0.279559,0.862076 1.022089,2.343285 0.610876,1.218584 0.226036,1.183388 0.740487,2.551851 0.640497,1.703749 1.811265,2.989944 2.666156,4.538781 0.359988,0.6522 0.508365,1.404125 0.842089,2.070147 0.307695,0.614077 0.596071,1.268677 1.083252,1.752849 0.07653,0.07605 0.275099,-0.09778 0.323669,-0.0013 0.09742,0.193228 -0.09398,0.455679 0.0029,0.649176 0.04796,0.0958 0.243698,-0.07519 0.321404,-0.0013 1.938077,1.83954 3.034907,1.572017 3.047713,4.447559 0.0024,0.556794 0.206603,1.150421 0.0074,1.670383 -0.677368,1.768441 -1.389605,0.71651 -2.694731,1.071663 -3.919071,1.066467 -2.44164,2.32382 -4.135829,2.896944 -1.353382,0.457835 -1.861446,-0.547653 -2.606154,-1.290404 -0.723892,-0.72199 0.110927,1.106916 -0.648351,-0.318543 -0.59146,-1.110398 -0.127995,-2.521616 -0.371097,-3.756004 -0.244467,-1.241316 -1.426637,-3.805062 -1.433426,-5.329406"
       id="path943" />
    <path
       style="fill:none;stroke:#000000;stroke-width:0.264583px;stroke-linecap:butt;stroke-linejoin:miter;stroke-opacity:1"
       d="m 45.570235,21.983784 c -0.462971,0.10997 -1.040546,0.0058 -1.388912,0.32991 -2.644418,2.460654 -3.267123,9.641683 -3.513373,13.089976 -0.08672,1.214372 0.173046,3.036356 0.738293,4.147302 0.811446,1.594816 3.506312,3.977468 5.430377,4.001042 1.831367,0.02244 2.965109,-1.798997 4.362966,-2.616996 0.298707,-0.1748 0.707777,-0.122113 0.984414,-0.330086 0.354645,-0.266618 1.221833,-2.509534 1.289251,-2.927668 0.254294,-1.577107 0.352193,-6.158076 -0.03384,-7.599399 -0.183248,-0.684178 -0.615884,-1.285677 -0.792261,-1.971659 -0.07537,-0.293153 0.217924,-1.765126 -0.0094,-2.105704 -1.671045,-2.50381 0.172111,0.973522 -0.974286,-1.293987 -0.16202,-0.320466 -0.09874,-0.761706 -0.349075,-1.019158 -1.255107,-1.290803 -2.436061,0.917654 -3.027762,1.504809 -2.21833,2.201287 -0.871837,0.621764 -2.295906,1.591835 -0.108016,0.108982 -0.21603,0.217963 -0.324046,0.326948 5.29e-4,0.09794 0.0698,0.223819 0.0013,0.293828 -0.212177,0.216863 -1.071182,0.386659 -1.069023,0.871116"
       id="path945" />
    <path
       style="fill:none;stroke:#000000;stroke-width:0.264583px;stroke-linecap:butt;stroke-linejoin:miter;stroke-opacity:1"
       d="m 69.397951,24.439721 c -0.01844,-4.141189 -0.278789,-2.027038 2.823231,-8.405724 1.63477,-3.36158 1.654659,-4.023124 4.680751,-5.58933 2.066825,-1.0697192 3.312843,-0.790778 3.31483,-0.7763185 0.194871,1.4186485 -0.358357,2.8422845 -0.477547,4.2692855 -0.803023,9.614193 -0.454038,12.017788 -2.498775,22.401495 -0.128632,0.653232 -1.909961,5.409046 -2.518132,6.884424 -0.856755,2.078423 -0.367498,-1.087285 -0.230116,-1.42198 1.412751,-3.441766 2.918203,-6.845585 4.46197,-10.230614 2.288937,-5.018971 4.783506,-9.94319 7.03507,-14.97904 0.945539,-2.114797 1.234122,-4.559057 2.552269,-6.464026 0.919821,-1.3293175 2.68564,-1.8138029 3.907745,-2.8719206 0.476678,-0.412714 1.306753,-1.9954443 1.309563,-1.3649314 0.0097,2.1877313 -1.058728,4.256964 -1.321062,6.428932 -0.63935,5.293439 -0.680194,10.646205 -1.274988,15.944837 -0.206158,1.836529 -0.897598,4.201806 -0.53382,4.284655 1.294728,0.294867 3.299592,-1.532814 4.004122,-2.323323 0.377581,-0.423661 0.444108,-1.051102 0.754592,-1.526135 0.290459,-0.444399 1.087178,-1.532871 1.223443,-1.019754 0.177327,0.667731 0.0062,1.381736 0.0092,2.072605 0.01246,2.800266 -0.438414,10.391585 0.05574,12.515012 0.177959,0.764706 0.934291,1.272294 1.503196,1.813401 3.230517,3.07267 6.784587,3.788349 11.222137,3.863387 0.79775,0.01349 1.96419,0.270608 2.35562,-0.42464 1.71945,-3.054069 0.61838,-8.585523 0.31929,-11.611078"
       id="path947" />
    <path
       style="fill:none;stroke:#000000;stroke-width:0.264583px;stroke-linecap:butt;stroke-linejoin:miter;stroke-opacity:1"
       d="m 144.0933,30.819312 c 1.46685,1.115597 2.59037,3.001243 4.40057,3.346794 6.47586,1.236189 11.24889,-1.331378 17.10607,-2.996131 4.51492,-1.283251 7.50802,-1.479722 10.67176,-5.492576 0.26913,-0.341367 0.5578,-1.965523 0.31532,-2.28496 -3.68471,-4.854116 -3.61692,-2.470884 -7.97845,-3.821331 -2.55279,-0.790414 -3.69923,-1.644268 -5.7625,-0.341779 -0.72114,0.455235 -1.36264,1.106971 -2.18594,1.329359 -3.00346,0.811282 -6.14949,0.481997 -9.15255,1.48051 -1.37727,0.457943 0.0223,0.133617 -0.97069,1.306334 -0.41629,0.491645 -1.0097,0.800388 -1.51884,1.195096 -6.49098,5.032123 4.80919,-3.983734 -3.35906,3.451463 -0.42644,0.388173 -1.11086,0.399695 -1.5439,0.780502 -0.52983,0.465937 -0.80702,1.160897 -1.26959,1.693675 -0.50286,0.579178 -1.16035,1.020146 -1.61984,1.634299 -1.51075,2.019282 -0.10037,1.672241 -1.5617,4.330237 -0.2201,0.400352 -0.81296,0.439145 -1.14584,0.752057 -0.75855,0.713044 -1.70989,4.476464 -1.29598,5.689933 0.78975,2.31534 6.153,1.86495 7.92117,2.327709 0.49582,0.129765 0.80083,0.713706 1.30298,0.816317 0.86037,0.175813 1.76021,-0.09481 2.63441,-0.01172 1.62017,0.153961 3.50627,0.839247 5.18143,0.412522 1.00124,-0.255053 2.02039,-0.838814 3.06394,-1.018228 0.94927,-0.1632 1.94014,0.149511 2.88954,-0.01286 4.22252,-0.722185 7.14945,-2.766911 7.12884,-7.395146"
       id="path949" />
    <path
       style="fill:none;stroke:#000000;stroke-width:0.264583px;stroke-linecap:butt;stroke-linejoin:miter;stroke-opacity:1"
       d="m 20.233662,72.040908 c -0.762407,3.934537 -1.011498,4.6516 -1.356334,8.54592 -0.211635,2.390047 -0.410808,4.782902 -0.505289,7.180439 -0.112654,2.858723 0.360922,5.740056 0.03822,8.58274 -0.127388,1.122182 -0.568053,2.187469 -0.788592,3.295115 -0.163561,0.821478 0.157874,1.754118 0.01147,2.576558 -0.181784,1.02122 -0.623593,2.0769 -0.737676,3.16508 -0.01923,0.18344 0.172284,2.35741 0.01337,3.00297 -0.390206,1.58518 -0.430414,3.41389 -0.667482,5.07979 -0.05072,0.35644 0.01621,3.63964 0.01313,2.94894"
       id="path951" />
    <path
       style="fill:none;stroke:#000000;stroke-width:0.264583px;stroke-linecap:butt;stroke-linejoin:miter;stroke-opacity:1"
       d="m 33.80151,85.793711 c 0.73542,6.805967 0.345403,13.667391 0.375841,20.501869 0.0033,0.75067 0.100023,1.50674 0.01003,2.25201 -0.04594,0.38044 -0.696333,1.29136 -0.371596,1.08791 1.0489,-0.65716 0.688295,-2.38612 1.191982,-3.51676 1.296744,-2.91084 2.918034,-5.66951 4.219876,-8.578066 0.650381,-1.453073 0.885296,-3.08197 1.629056,-4.489535 0.942086,-1.7829 1.274487,-1.283493 2.418707,-2.024165 0.190701,-0.123444 0.53218,-0.545799 0.597294,-0.328163 0.69228,2.313913 0.716672,5.815872 1.30256,8.17957 0.187637,0.757012 0.688009,1.413469 0.87087,2.171649 0.189228,0.78458 -0.337439,1.69311 0.0108,2.4212 0.07278,0.15217 0.559861,-0.35243 2.249819,-2.27789 2.031296,-2.314364 5.392369,-6.709368 7.523702,-8.497316 0.581557,-0.487863 1.457341,-0.456137 2.126924,-0.813734 0.857123,-0.457751 0.533313,1.878597 0.636101,2.844842 0.294005,2.763784 0.326136,1.256757 1.285991,3.701018 0.551217,1.40367 0.150268,1.73307 1.509525,1.72702"
       id="path953" />
    <path
       style="fill:none;stroke:#000000;stroke-width:0.264583px;stroke-linecap:butt;stroke-linejoin:miter;stroke-opacity:1"
       d="m 88.465241,90.665455 c -2.654798,-0.550042 -4.606147,-1.051499 -7.392829,-1.159441 -2.549014,-0.09873 -5.170172,-0.552667 -7.6527,0.03408 -1.364305,0.322455 -2.421151,1.499383 -3.334646,2.562788 -1.218806,1.41882 -1.950503,3.1925 -2.961265,4.766316 -1.716857,2.673254 -3.992882,5.440272 -2.891472,8.794202 0.335915,1.02291 0.07934,0.99505 0.992796,1.32862 2.340859,0.85483 4.444698,1.9848 6.763663,0.29048 0.267382,-0.19536 2.151607,-3.1107 2.574475,-3.40453 0.460719,-0.32014 1.814814,-0.058 2.302941,-0.35148 2.765917,-1.66287 1.244618,-0.81266 2.185122,-2.97611 0.182359,-0.41948 0.613775,-0.706459 0.768284,-1.136978 0.111636,-0.31106 -0.108291,-0.677712 -0.0044,-0.99145 0.398737,-1.204325 1.482259,-2.651662 2.030595,-3.761065 0.278468,-0.563406 1.159721,-0.866439 1.580086,-1.290571 0.282945,-0.285486 1.697913,-2.356731 0.967798,-1.955541 -0.184631,0.101455 -0.599575,5.579457 -0.596958,6.166969 0.0031,0.694442 -0.193368,1.419101 0.0093,2.083324 1.570328,5.147122 6.908313,8.885232 11.661044,10.778252 0.654077,0.26052 1.436243,0.0814 2.080208,0.36596 0.632772,0.27966 1.140727,0.79828 1.773332,1.07832 1.684865,0.74584 5.094835,-2.04003 5.837065,-3.24216 0.34434,-0.55772 0.48033,-1.21973 0.72049,-1.8296 0.44623,-0.75646 0.86502,-1.5298 1.33868,-2.2694 0.39296,-0.6136 1.48995,-0.44319 1.97779,-1.02084 1.30821,-1.54905 2.16767,-3.632527 3.29036,-5.33288"
       id="path957" />
    <path
       style="fill:none;stroke:#000000;stroke-width:0.264583px;stroke-linecap:butt;stroke-linejoin:miter;stroke-opacity:1"
       d="m 136.69315,93.771661 c -0.48334,-2.720428 -2.47772,-4.745673 -5.19801,-5.027131 -0.43834,-0.04536 -0.93038,-0.196144 -1.32201,0.0059 -0.65492,0.337852 -2.55854,3.941297 -3.20299,4.806789 -0.90799,1.219433 -3.0875,3.211531 -2.47533,4.977762 1.34963,3.893929 5.881,2.979059 8.94196,2.311489 0.62667,-0.13667 1.07235,0.19307 1.63904,-0.33782 0.22116,-0.2072 -0.14081,-0.638724 -0.004,-0.909168 0.247,-0.488447 0.60013,-0.923705 0.98106,-1.316752 0.0722,-0.07446 0.26512,0.09157 0.31107,-0.0013 0.0468,-0.0947 0.7107,-5.647888 0.31715,-1.876668 -0.13888,1.330735 -0.47729,2.64283 -0.51949,3.980128 -0.115,3.64516 0.15849,7.29548 0.0487,10.9408 -0.0714,2.36996 -0.45308,4.72147 -0.59159,7.08846 -0.0914,1.56191 0.58297,4.5061 -0.29878,5.99989 -0.33613,0.56945 -0.53241,1.24589 -1.00043,1.71303 -2.14566,2.14161 -0.63039,0.37154 -2.05644,1.3659 -1.41622,0.98751 -2.82497,2.55905 -4.76527,2.08315 -0.85517,-0.20975 -1.94982,-1.47446 -2.88997,-1.75373 -0.60059,-0.17841 -1.17012,0.0192 -1.65967,-0.33365 -0.76457,-0.55104 -0.21893,-1.87218 -0.31962,-2.80924 -0.0608,-0.56593 -0.31929,-1.09868 -0.38099,-1.66452 -0.20733,-1.90134 0.5555,-4.93613 1.64782,-6.57455 0.4099,-0.61483 1.80016,-2.26256 2.28476,-2.63212 0.29255,-0.22311 1.2604,0.0843 1.61949,-0.007 0.68041,-0.17333 1.3778,-0.79563 1.96889,-0.99559 2.71251,-0.91761 5.87564,-1.25797 8.68242,-0.66559 1.07341,0.22654 2.14832,0.44713 3.21606,0.69902 0.66406,0.15666 1.65581,1.02985 1.99897,0.44014 0.10814,-0.18585 0.0178,-0.43103 -0.003,-0.64506 -0.11584,-1.2026 -0.27079,-2.40112 -0.40619,-3.60168"
       id="path959" />
    <path
       style="fill:none;stroke:#000000;stroke-width:0.264583px;stroke-linecap:butt;stroke-linejoin:miter;stroke-opacity:1"
       d="m 154.86331,105.0081 c 0.83328,-0.10084 1.66656,-0.20168 2.49984,-0.30252 2.05274,-0.009 4.1163,0.18335 6.15821,-0.0274 1.37369,-0.1418 2.67651,-0.68179 4.01476,-1.0227 1.37281,-0.3497 2.81704,-0.4894 4.11843,-1.04912 2.97663,-1.28024 5.75479,-2.985018 8.55833,-4.609681 2.41242,-1.398008 -1.11761,-5.655157 -2.2117,-6.739586 -0.98627,-0.977556 -2.22601,-1.289706 -3.47016,-1.71501 -1.32929,-0.454409 -1.39252,-0.346718 -3.12824,-0.338987 -4.76853,0.02125 -3.86952,0.433887 -6.6609,4.012324 -0.72831,0.93367 -4.22005,4.22144 -4.69166,5.084149 -0.83948,1.535633 -1.04238,3.367961 -1.8945,4.896621 -2.21739,3.9779 -5.89813,5.37459 -5.87511,10.5429 0.002,0.35952 -0.17478,1.17673 0.007,1.4947 1.1544,2.02308 5.53069,1.95897 7.29713,2.25216 2.86018,0.47471 9.02396,0.98402 12.21317,0.44175 0.67327,-0.11448 1.39878,-0.70543 1.94943,-0.98557 0.57271,-0.29138 1.29438,0.10006 1.9277,-0.009 0.73046,-0.12532 4.4287,-1.27785 4.97834,-1.68638 0.19365,-0.14393 0.15071,-0.47771 0.32079,-0.64884 0.66169,-0.66579 1.24216,-0.77642 1.6446,-1.98961 0.10631,-0.32049 -0.15085,-0.70867 -0.005,-1.01298 0.10514,-0.21865 0.46178,-0.17475 0.64954,-0.3284 0.39046,-0.31952 0.81413,-0.63758 1.06549,-1.07504 1.60294,-2.7897 -0.32315,-0.73793 0.71347,-1.78389"
       id="path961" />
  </g>
</svg>
