<?xml version="1.0" encoding="UTF-8" standalone="no"?>
<!-- Created with Inkscape (http://www.inkscape.org/) -->

<svg
   width="403.70081"
   height="112.51965"
   viewBox="0 0 106.8125 29.770826"
   version="1.1"
   id="svg5"
   inkscape:version="1.1.2 (0a00cf5339, 2022-02-04)"
   sodipodi:docname="some_other_image.svg"
   xmlns:inkscape="http://www.inkscape.org/namespaces/inkscape"
   xmlns:sodipodi="http://sodipodi.sourceforge.net/DTD/sodipodi-0.dtd"
   xmlns="http://www.w3.org/2000/svg"
   xmlns:svg="http://www.w3.org/2000/svg">
  <sodipodi:namedview
     id="namedview7"
     pagecolor="#ffffff"
     bordercolor="#666666"
     borderopacity="1.0"
     inkscape:pageshadow="2"
     inkscape:pageopacity="0.0"
     inkscape:pagecheckerboard="0"
     inkscape:document-units="mm"
     showgrid="false"
     units="px"
     height="112.51965px"
     inkscape:zoom="1.258413"
     inkscape:cx="323.42323"
     inkscape:cy="42.116538"
     inkscape:window-width="3840"
     inkscape:window-height="1012"
     inkscape:window-x="0"
     inkscape:window-y="0"
     inkscape:window-maximized="1"
     inkscape:current-layer="layer1" />
  <defs
     id="defs2" />
  <g
     inkscape:label="Layer 1"
     inkscape:groupmode="layer"
     id="layer1">
    <path
       style="fill:none;stroke:#000000;stroke-width:0.264583px;stroke-linecap:butt;stroke-linejoin:miter;stroke-opacity:1"
       d="m 15.476924,7.9155281 c -0.248875,-0.6405184 -0.502022,-1.6409453 -1.252065,-1.931757 -0.205069,-0.079511 -0.446042,0.051661 -0.659833,0 -0.09831,-0.023757 -0.408587,-0.411797 -0.612225,-0.2102517 -0.463385,0.4586253 -0.149454,0.7439739 -0.380054,1.2077213 -0.03103,0.062409 -0.159811,-0.049283 -0.209097,0 -0.08919,0.089183 0,1.2183107 0,1.2482661 0,0.2243076 -0.08982,0.4673824 0,0.6729229 0.103859,0.2376758 2.142981,3.5922883 2.553587,3.8283013 0.311649,0.179133 1.068038,0.143721 1.395637,0.471321 0.353642,0.353641 0.606584,1.534512 0.425636,2.076362 -0.268261,0.80331 -1.076719,0.945317 -1.560255,1.530805 -0.148517,0.179831 -0.119029,0.454362 -0.222571,0.66335 -0.174264,0.351731 -2.896883,1.904426 -3.069027,1.770841 -0.116453,-0.09037 -0.114999,-0.66328 -0.20907,-0.776381 -0.3133,-0.376675 -0.692242,-0.693516 -1.039324,-1.039311 -0.584558,-0.58239 -0.9751086,-0.805807 -0.9751086,-1.651932"
       id="path906" />
    <path
       style="fill:none;stroke:#000000;stroke-width:0.264583px;stroke-linecap:butt;stroke-linejoin:miter;stroke-opacity:1"
       d="m 25.457073,11.775693 c -1.640735,-0.143723 -2.010006,0.242325 -3.373573,1.088152 -0.261337,0.162108 -0.621095,0.234313 -0.774995,0.500566 -0.208845,0.361311 -0.157171,0.819799 -0.226113,1.231391 -0.214573,1.281047 -0.609158,1.502076 -0.06927,2.303387 0.626893,0.930446 2.338731,0.630755 3.228409,0.630755 2.32007,0 3.868626,-0.310068 5.777658,-1.58868 0.130286,-0.08726 0.351039,-0.06993 0.420759,-0.21038 0.09445,-0.19026 -0.06807,-0.436025 0,-0.637235 0.08491,-0.251006 0.369128,-0.406882 0.439626,-0.662311 0.08252,-0.299005 -0.04254,-0.623299 0,-0.930553 0.04123,-0.297791 0.354402,-0.605481 0.220337,-0.874564 -0.647472,-1.299555 -1.497316,-1.48263 -2.831877,-1.48263 -1.303555,0 -1.577213,-0.165208 -2.81096,0.632102 -1.78243,1.151896 -0.558224,1.104321 -1.374438,1.104321"
       id="path957" />
    <path
       style="fill:none;stroke:#000000;stroke-width:0.264583px;stroke-linecap:butt;stroke-linejoin:miter;stroke-opacity:1"
       d="m 36.437532,13.404706 c 0,-2.540242 -0.142353,-0.04483 0.983862,-3.917976 0.956725,-3.2902556 -0.157073,-0.5846437 0.591383,-2.8290027 0.284181,-0.8521541 0.707072,-1.184297 1.468221,-0.4231402 0.255912,0.255915 0.134709,0.7112362 0.209071,1.0654315 0.50883,2.4236569 0.474556,5.3040124 -0.07546,7.7132324 -0.251426,1.101311 -0.756618,2.007233 -0.764061,2.001779 -0.646692,-0.473939 2.148747,-5.114824 2.925069,-5.891138 0.09614,-0.09614 0.880737,-1.105609 1.329547,-0.698627 0.09401,0.08525 0,0.253806 0,0.380709 0,0.417573 0,0.835146 0,1.252719 0,0.676251 0.169323,1.374043 0,2.028754 -0.147886,0.571829 -0.690403,0.97078 -0.916821,1.516303 -0.234748,0.565595 -0.459028,2.042954 -0.459028,2.668478 0,0.192213 -0.07018,-0.397696 0,-0.576639 0.225766,-0.575661 0.497332,-1.135001 0.806024,-1.670784 0.562137,-0.975672 1.285499,-1.856654 1.802614,-2.856914 0.401098,-0.77584 0.510731,-1.684945 0.938972,-2.446138 0.199078,-0.353857 1.248556,-1.0939916 1.733524,-0.872729 0.354242,0.161619 -0.353026,0.701716 -0.44473,1.080132 -0.624859,2.578462 0.930476,-1.0240306 -0.25781,2.234847 -0.293598,0.805192 -1.42031,2.413234 -0.707753,3.080652 0.152815,0.143134 0.429503,-0.06621 0.628137,0 0.779425,0.259809 -0.256286,0.210252 0.420505,0.210252"
       id="path1008" />
    <path
       style="fill:none;stroke:#000000;stroke-width:0.264583px;stroke-linecap:butt;stroke-linejoin:miter;stroke-opacity:1"
       d="m 52.236406,11.894254 c 1.07822,0.503852 3.867949,0.560232 4.726964,-0.29401 0.04942,-0.04914 -0.04334,-0.154501 0,-0.209084 0.01783,-0.02246 0.646891,-0.367102 0.751356,-0.419336 0.06269,-0.03134 0.178594,0.06253 0.210254,0 0.211349,-0.417413 0.885997,-3.6134597 0.642535,-4.0913718 -0.182666,-0.3585639 -0.495067,-0.6721232 -0.854789,-0.8524915 -0.313418,-0.1571495 -0.708224,0.069749 -1.051822,0 -1.000141,-0.2030251 -1.948484,-0.4282683 -3.015335,0.027411 -0.600477,0.2564791 -2.081453,1.1859659 -2.450899,1.9228062 -0.03124,0.062302 0.04928,0.1598009 0,0.2090838 -0.04928,0.04928 -0.170489,-0.058036 -0.209071,0 -0.422513,0.6355527 -0.341638,1.2878207 -0.425661,1.9919483 -0.135668,1.136879 -0.56441,2.70341 -0.270129,3.883867 0.126148,0.506034 0.539615,1.060912 0.85104,1.292167 0.09461,0.07026 -0.06605,0.255943 0,0.353542 0.0378,0.05585 0.680577,0.785724 0.838311,0.838299 0.928709,0.309549 3.44809,0.165763 4.309748,-0.26234 0.2053,-0.102001 0.649523,-0.857142 0.835898,-1.043507"
       id="path1010" />
    <path
       style="fill:none;stroke:#000000;stroke-width:0.264583px;stroke-linecap:butt;stroke-linejoin:miter;stroke-opacity:1"
       d="m 62.932725,11.400027 c 1.282435,0.450896 1.241049,0.451417 1.633606,-0.333651 0.174085,-0.348149 0.122605,-1.3169957 -0.509305,-0.723638 -0.738113,0.69308 0.579046,0.214576 -1.124301,1.057289 z"
       id="path1012" />
    <path
       style="fill:none;stroke:#000000;stroke-width:0.264583px;stroke-linecap:butt;stroke-linejoin:miter;stroke-opacity:1"
       d="m 63.054197,16.379386 c -0.248851,0.543612 -0.497705,1.087224 -0.746556,1.630836 -0.505833,1.212505 -0.972354,2.442169 -1.517496,3.637517 -0.425837,0.933742 -0.613011,0.432707 -0.696101,1.593146 -0.0065,0.09004 0.110752,-0.151119 0.19149,-0.19149 0.580586,-0.290312 0.799547,-0.176119 1.319591,-0.696164"
       id="path1014" />
    <path
       style="fill:none;stroke:#000000;stroke-width:0.264583px;stroke-linecap:butt;stroke-linejoin:miter;stroke-opacity:1"
       d="m 67.12713,13.361717 c 1.910323,2.614663 -3.398785,4.956047 -2.406933,7.511823 0.05137,0.132381 0.09444,-0.276546 0.190719,-0.380927 0.5573,-0.604222 1.19652,-1.129051 1.756775,-1.730534 0.791012,-0.849219 1.374553,-1.881321 2.192732,-2.704397 0.344998,-0.347063 0.274791,0.202864 0.363524,0.351001 0.03602,0.06012 0.160385,-0.04924 0.210251,0 0.377508,0.372805 0.02276,3.094989 0.217081,3.542478 0.170169,0.391851 0.302133,-0.840476 0.627213,-1.117655 0.704347,-0.600559 1.520404,-1.074969 2.362353,-1.459544 0.33024,-0.150843 5.158296,-1.945678 5.543434,-1.243248 0.108963,0.198728 0,0.765024 0,1.004623 0,1.288422 0.09403,-0.07072 -0.459412,1.549566 -0.139848,0.409426 0,1.057676 0,1.495553"
       id="path1016" />
    <path
       style="fill:none;stroke:#000000;stroke-width:0.264583px;stroke-linecap:butt;stroke-linejoin:miter;stroke-opacity:1"
       d="m 83.08138,16.811208 c 0.05899,-0.308794 0.186166,-0.61214 0.176964,-0.926383 -0.01468,-0.501027 -1.147384,-0.321854 -1.503407,0.03098 -0.621941,0.616365 -2.916685,4.514139 -3.07303,5.641862 -0.02727,0.196683 -0.03853,1.286973 0,1.308323 1.041268,0.577054 2.493793,-0.918992 2.849433,-1.651368 1.214313,-2.500658 0.0029,-0.754782 0.847114,-3.07928 0.17059,-0.469695 0.577373,-0.840448 0.702926,-1.324133 0.12173,-0.468949 -0.137059,-1.762558 0.221314,-1.436523 0.0549,0.04994 -0.349735,2.1125 -0.399175,2.70024 -0.0208,0.247192 -0.243432,2.116834 0,2.463026 0.215326,0.306221 1.117783,0.05344 1.117783,1.236973"
       id="path1018" />
    <path
       style="fill:none;stroke:#000000;stroke-width:0.264583px;stroke-linecap:butt;stroke-linejoin:miter;stroke-opacity:1"
       d="m 89.374119,17.107631 c -1.271852,-6.008841 -2.382779,2.570992 -2.154539,3.270283 0.115842,0.354928 0.370033,0.11915 0.612658,0.201204 0.819402,0.277114 1.501638,0.178183 2.090532,-0.410712 0.336692,-0.336691 0.420631,-2.156705 0.420631,-2.726905 0,-0.188584 -0.159885,0.345553 -0.196392,0.530569 -1.11498,5.650719 0.65582,-1.628871 -0.863412,4.33241 -0.371753,1.45871 -0.647856,2.749657 -1.602862,3.951611 -0.251925,0.317071 -0.63441,0.522134 -0.859073,0.859075 -0.211608,0.31736 -0.171365,0.533554 -0.624956,0.835192 -0.804452,0.534966 -0.847566,-1.93856 -0.654211,-2.202585 0.371509,-0.507293 2.425668,-0.341888 2.425668,-1.243364"
       id="path1020" />
    <path
       style="fill:none;stroke:#000000;stroke-width:0.264583px;stroke-linecap:butt;stroke-linejoin:miter;stroke-opacity:1"
       d="m 94.586342,23.661516 c 2.008499,1.081564 3.836712,0.907635 5.958238,0.594926 0.13781,-0.02032 0.29316,0.06198 0.41791,0 0.11965,-0.05945 0,-0.267212 0,-0.400818 0,-0.162714 0.0823,-0.638566 0,-0.776252 -0.1978,-0.330723 -0.76284,-1.167811 -1.182176,-1.483978 -0.241155,-0.181822 -0.899642,-0.350442 -1.031314,-0.61379 -0.0055,-0.01104 0.0059,-0.402417 0,-0.405348 -0.176991,-0.08825 -0.669555,-0.04558 -0.827276,-0.210251 -0.06594,-0.06884 -0.129267,-0.275028 -0.196675,-0.207621 -0.7464,0.746401 0.05116,0.107936 -0.196676,0.603601 -0.287882,0.575765 -1.625856,2.146768 -1.73075,2.24057 -0.342625,0.306396 -0.896001,0.324494 -1.211281,0.658961 -0.502489,0.533067 -1.019128,1.95816 -1.147223,2.737172 -0.03464,0.210643 -0.196667,1.756913 0.210251,1.858642 1.074248,0.268563 1.982415,-0.200961 2.826898,-0.200961"
       id="path1022" />
    <path
       style="fill:none;stroke:#000000;stroke-width:0.264583px;stroke-linecap:butt;stroke-linejoin:miter;stroke-opacity:1"
       d="M 1.0083452,28.857696 C 0.84650574,26.910461 0.90296279,28.013853 0.90296279,25.544862 c 0,-5.58888 0,-11.17776 0,-16.7666401 0,-0.2361165 -0.63398513,-6.5314069 -0.41945088,-6.7751534 0.3026793,-0.3438938 1.09601499,-0.08483 1.66127499,-0.1826868 2.3615903,-0.408833 4.581868,-0.010093 6.9640192,-0.010093 1.1034899,0 4.7512539,0.2860711 5.3238149,0 0.451334,-0.2255018 1.07619,-0.3258195 1.650855,-0.2102516 1.157999,0.2328792 2.480391,0.3408208 3.709354,0.2134983 0.746169,-0.077304 0.543165,-0.239627 1.117732,-0.4342535 0.851405,-0.2884014 3.152217,0 3.903847,0 3.683094,0 7.240356,0.2159558 10.947481,0.2159558 1.125125,0 2.741583,0.2205208 3.820461,0 0.289063,-0.059084 0.463021,-0.3867075 0.742117,-0.482389 0.631489,-0.21649287 1.479508,0.1624044 2.128848,0 0.164984,-0.041264 0.419994,-0.37482118 0.685755,-0.21036713 1.246071,0.77107593 5.520163,0.94817423 7.049947,0.64350403 0.400725,-0.079808 0.602306,-0.2804515 1.051259,-0.2102515 1.163904,0.1819921 2.284515,0.4545705 3.417898,0.6795769 0.721846,0.1433059 1.530239,-0.097549 2.259869,0 0.234675,0.031375 0.450893,0.144642 0.676339,0.2169631 0.468855,0.081052 0.933979,0.1878947 1.40657,0.2431547 1.067789,0.1248563 2.132647,-0.5320277 3.206927,-0.2635973 1.07673,0.2690428 2.177042,0.3863026 3.307638,0.490987 4.501095,0.4167669 8.933738,-1.1780719 13.101661,-1.6461965 1.27149,-0.14280878 2.924718,0.3247075 4.167225,0 0.877411,-0.22929557 1.593069,-0.21840037 2.520402,-0.21840037 0.280498,0 0.641559,-0.19673689 0.841494,0 0.04775,0.0469821 -0.04829,0.15453561 0,0.20095427 0.20361,0.1957056 0.566299,-0.028771 0.847244,0 0.566182,0.057982 1.124217,0.1834126 1.690687,0.2384964 0.397071,0.038611 0.817523,-0.1236192 1.196832,0 0.958951,0.3125286 2.137614,0.6904388 3.225612,0.9151026 1.142913,0.2360039 2.291599,-0.076907 3.44967,0.2169824 0.0024,6.138e-4 5.033525,-0.087181 5.094465,-0.207268 0.0284,-0.056036 -0.0572,-0.1625407 0,-0.1885194 0.52392,-0.2378741 1.72035,0.3489275 2.15608,0 0.10106,-0.080927 1.55929,-0.5663844 1.88305,-0.3659768 0.29347,0.1816552 -0.89298,4.3679992 -1.09968,5.1910608 -0.064,0.254798 0.0518,0.5705729 0,0.8257355 -0.61149,3.0098866 -0.19801,6.1439226 -0.19801,9.2295616 0,1.080471 -0.30134,4.153208 0,5.032731 0.0661,0.192839 0.31954,0.393073 0.38154,0.590627 0.15344,0.488901 0.0469,1.143756 0.21038,1.61772 0.36745,1.065544 0.76588,1.890449 0.93566,3.044322 0.0985,0.669666 -0.0701,1.110509 -0.74317,1.110509 -0.62552,0 -0.36511,0.01836 -0.96338,0.418129 -0.42087,0.281226 -2.89592,0.05767 -3.18467,0 -0.5149,-0.102841 -0.91235,-0.359838 -1.35971,-0.583517 -0.592256,-0.29613 -2.690775,-0.505688 -3.259952,-0.427408 -0.877565,0.120692 -0.738047,0.153062 -1.25961,0.420502 -0.208198,0.106757 -0.587978,-0.110953 -0.793575,0 -0.543322,0.293209 0.230364,0.202594 -0.630756,0.417873 -0.388287,0.09707 -1.089174,-0.07004 -1.440937,0.105844 -0.895398,0.447701 -2.083141,0.423986 -3.126028,0.639699 -2.032556,0.420417 -5.996678,-0.306573 -8.159414,-0.473874 -2.207355,-0.170752 -1.494422,0.201117 -2.718231,-0.210252 -0.889826,-0.299103 -3.02391,0.02019 -3.960313,0.200319 -1.325322,0.254953 -3.125343,0 -4.459941,0 -0.548497,0 -1.122547,0.165468 -1.645491,0 -0.255077,-0.08071 -0.412766,-0.370226 -0.670893,-0.440574 -1.018281,-0.277505 -0.755418,0.09834 -1.585947,0.213358 -0.69722,0.09656 -5.846027,0.215156 -6.690966,0 -1.002848,-0.255368 -2.818598,-0.01421 -3.681172,-0.44015 -0.06206,-0.03065 0.06191,-0.176692 0,-0.207645 -0.123809,-0.06191 -0.283948,0.04377 -0.415269,0 -0.09285,-0.03095 -0.112628,-0.184095 -0.207634,-0.207622 -0.411295,-0.101854 -0.855533,0.08242 -1.271159,0 -0.591677,-0.117329 -1.524286,-0.583869 -2.139961,-0.432387 -1.006964,0.247756 0.0037,0.103571 -0.629576,0.419336 -0.251462,0.125386 -0.627784,0.0349 -0.888436,0.170714 -1.603917,0.835723 -1.94999,1.818404 -3.965752,1.473994 -0.753584,-0.128757 -0.565285,-0.477063 -1.083879,-0.649928 -0.50029,-0.166762 -1.187733,0.147156 -1.689968,0 -0.257371,-0.07541 -0.446169,-0.29772 -0.669253,-0.446577 -0.396952,-0.155768 -0.777483,-0.362614 -1.190852,-0.467304 -1.235753,-0.312971 -0.07763,0.303085 -1.287921,0 -0.0968,-0.02424 -0.141126,-0.141127 -0.211687,-0.211691 -0.140195,-0.07011 -0.268515,-0.172305 -0.420579,-0.210328 -1.459572,-0.364948 -3.78155,-0.448945 -5.301102,-0.21831 -1.353772,0.205473 -2.200233,1.417301 -3.421364,1.818616 -0.505497,0.166129 -1.262467,0.105061 -1.796531,0.236342 -0.371602,0.09134 -0.692841,0.345969 -1.068147,0.420669 -2.470329,0.491696 -4.024722,-1.650521 -6.16767,-2.150047 -1.567094,-0.365294 -6.493348,-0.812437 -7.730698,0.0086 -0.05767,0.03826 0.04806,0.157818 0,0.207621 -0.530876,0.550156 -3.3431,-0.996336 -3.754063,-1.096098 -0.231764,-0.05626 -0.8923691,0.14236 -1.0900647,0 -0.038309,-0.02759 0,-0.09441 0,-0.141621 -0.065088,-0.06508 -0.1144399,-0.151206 -0.1952627,-0.19525 -0.1476883,-0.08048 -1.3169368,1.199614 -1.4942698,1.282246 -0.4572625,0.213075 -0.6083078,0.663546 -0.9115095,0.872731 -0.1769752,0.122097 -0.6286849,0.110641 -0.8284559,0.210251 -1.5468851,0.771311 -3.106399,1.103188 -4.7462652,0.241139 z"
       id="path1024" />
  </g>
</svg>
